<?xml version="1.0" standalone="no"?>
<!DOCTYPE svg PUBLIC "-//W3C//DTD SVG 20010904//EN"
 "http://www.w3.org/TR/2001/REC-SVG-20010904/DTD/svg10.dtd">
<svg version="1.0" xmlns="http://www.w3.org/2000/svg"
 width="960.000000pt" height="560.000000pt" viewBox="0 0 960.000000 560.000000"
 preserveAspectRatio="xMidYMid meet">
<metadata>
Created by potrace 1.15, written by Peter Selinger 2001-2017
</metadata>
<g transform="translate(0.000000,560.000000) scale(0.100000,-0.100000)"
fill="#000000" stroke="none">
<path d="M0 2800 l0 -2800 4800 0 4800 0 0 2800 0 2800 -775 0 -776 0 1 -132
c0 -73 0 -140 0 -148 0 -33 13 -79 21 -74 5 3 9 0 9 -5 0 -6 -9 -11 -20 -11
-21 0 -26 -10 -11 -25 14 -16 24 -212 10 -220 -7 -5 -8 -10 -1 -14 6 -3 12
-18 14 -33 2 -15 7 -30 10 -33 9 -9 18 27 14 52 -3 13 -1 25 5 28 5 4 9 -13 9
-39 0 -36 -4 -46 -20 -51 -21 -7 -25 -30 -14 -72 4 -16 14 -23 30 -23 16 0 28
8 34 23 l9 22 0 -22 c1 -22 5 -23 70 -23 65 0 69 1 70 23 1 41 4 57 12 57 4 0
5 -18 2 -40 -5 -38 -4 -40 21 -40 14 0 26 5 26 11 0 5 -4 7 -10 4 -5 -3 -10
-1 -10 4 0 6 7 11 15 11 8 0 15 -7 15 -15 0 -11 15 -14 68 -14 37 1 73 6 81
12 15 13 43 19 37 8 -3 -4 -1 -13 4 -21 7 -11 11 -11 24 -1 10 8 16 9 16 3 0
-6 -8 -15 -17 -20 -15 -9 -15 -12 0 -43 12 -26 17 -30 22 -18 3 9 5 22 3 29
-2 7 7 14 19 16 23 4 40 -11 24 -21 -6 -3 -7 -13 -4 -22 5 -12 2 -15 -10 -10
-10 4 -17 2 -17 -5 0 -7 13 -9 35 -5 19 3 37 2 40 -3 3 -4 -50 -10 -118 -14
-67 -3 -127 -6 -132 -7 -12 -3 -14 -79 -3 -79 4 0 11 12 14 26 5 18 9 22 15
13 6 -10 12 -9 28 5 19 17 20 17 30 -2 6 -11 7 -22 4 -26 -3 -3 -1 -6 6 -6 6
0 17 12 24 28 16 38 24 42 90 42 55 0 57 -1 41 -17 -9 -10 -12 -19 -6 -21 5
-1 8 -12 5 -22 -4 -15 0 -20 16 -20 18 0 21 6 23 43 l1 42 6 -45 c5 -36 3 -45
-9 -47 -8 -1 -41 -5 -73 -8 l-57 -6 22 -19 c16 -14 18 -19 8 -19 -25 1 -45 13
-45 29 0 12 -17 16 -82 18 l-83 3 0 44 0 45 -72 0 c-44 0 -67 4 -58 9 8 4 43
5 78 2 35 -4 65 -3 68 1 3 4 11 5 19 1 25 -9 46 15 33 37 -6 10 -17 16 -25 13
-7 -3 -10 -9 -7 -14 3 -5 11 -6 17 -3 7 4 8 3 4 -1 -11 -13 -37 -15 -37 -3 0
7 -4 7 -12 1 -7 -5 -26 -10 -43 -10 -16 -1 -23 1 -15 4 8 4 21 12 28 20 14 13
16 14 62 17 14 0 30 5 37 9 8 5 13 -2 15 -20 l3 -28 19 28 c10 15 15 31 12 35
-11 10 -374 15 -420 5 -25 -6 -40 -15 -42 -26 -1 -9 2 -17 7 -17 5 0 9 7 9 15
0 8 5 15 10 15 6 0 10 -11 10 -25 0 -16 6 -25 16 -25 9 0 12 -5 8 -12 -5 -7
-3 -8 5 -3 7 4 11 16 8 26 -3 11 -1 19 5 19 5 0 6 5 3 10 -3 6 -1 10 4 10 6 0
11 -9 11 -20 0 -23 -2 -23 39 -9 38 14 41 28 4 22 -24 -3 -25 -2 -8 6 11 5 36
10 55 10 28 0 32 -2 18 -10 -10 -5 -18 -16 -18 -23 0 -7 -9 -21 -20 -31 -15
-14 -20 -15 -20 -4 0 11 -2 11 -10 -1 -7 -12 -3 -16 18 -21 16 -4 -4 -7 -50
-8 -46 -1 -78 3 -78 9 0 6 -5 10 -11 10 -9 0 -10 -42 -5 -157 7 -161 8 -200
26 -778 6 -181 13 -386 16 -455 16 -386 20 -588 13 -607 -12 -32 -26 -29 -34
6 -4 20 -11 28 -21 24 -7 -3 -12 -9 -9 -13 3 -5 1 -11 -5 -15 -5 -3 -10 0 -10
9 0 11 -12 14 -50 13 -28 -1 -50 -5 -50 -9 0 -5 0 -24 0 -44 l0 -36 73 4 c39
2 79 7 89 12 12 6 18 1 23 -23 7 -34 -9 -71 -31 -71 -11 0 -13 -6 -9 -21 4
-12 3 -19 -2 -16 -4 3 -29 8 -53 10 -25 3 -38 3 -28 1 9 -3 18 -11 21 -18 4
-9 -4 -11 -26 -8 -24 4 -29 2 -25 -10 4 -8 2 -21 -3 -29 -6 -10 -9 -7 -9 13 0
47 -7 54 -50 50 -22 -2 -37 -8 -34 -13 3 -5 -28 -9 -70 -9 -58 0 -77 -4 -84
-16 -11 -19 -43 -15 -50 6 -5 13 -3 13 11 1 10 -7 17 -12 18 -10 6 33 5 37
-10 34 -9 -1 -19 3 -23 9 -7 10 -13 -14 -9 -36 0 -5 -24 -8 -54 -8 -30 0 -55
4 -55 9 0 6 -12 6 -29 1 -24 -7 -29 -5 -24 6 6 17 -8 19 -24 3 -6 -6 -21 -8
-34 -3 -13 4 -42 8 -64 8 -22 1 -60 3 -85 5 -44 3 -44 3 -15 12 17 5 41 6 55
2 14 -3 29 -5 34 -4 8 2 173 12 211 13 15 0 21 8 22 29 3 33 -22 41 -32 10 -6
-20 -34 -36 -44 -25 -3 4 0 9 7 11 19 7 14 31 -8 38 -25 8 -95 9 -108 1 -5 -3
-54 -6 -108 -7 -66 -1 -92 -4 -76 -10 12 -5 22 -11 22 -14 0 -8 -84 7 -90 16
-3 4 -42 7 -88 6 -68 -2 -81 -5 -77 -17 4 -11 2 -11 -8 2 -10 13 -26 16 -73
13 -32 -2 -83 -4 -111 -4 -48 -1 -53 -3 -54 -23 l0 -23 -10 23 -9 24 -245 -8
-245 -7 0 47 0 47 -95 -3 c-57 -2 -96 1 -98 7 -9 24 -6 159 3 145 13 -21 12
-7 -2 27 -6 15 -12 69 -13 118 -1 50 -7 191 -13 315 -13 264 -20 458 -29 854
-6 282 -6 289 13 281 10 -5 47 -7 82 -6 37 1 62 -2 62 -8 0 -6 6 -8 14 -5 13
5 14 20 7 64 -1 3 -6 -2 -11 -10 -6 -10 -10 -11 -10 -2 0 7 -13 12 -29 12 -33
0 -48 14 -29 26 7 5 29 8 48 9 30 0 35 3 35 25 1 33 -11 40 -71 40 -48 0 -52
-2 -59 -27 -4 -19 -2 -31 9 -39 20 -14 20 -21 0 -41 -11 -12 -18 -13 -27 -4
-16 16 -27 14 -27 -6 0 -9 -2 -14 -5 -11 -15 14 -29 928 -15 928 7 0 10 -34 8
-101 -2 -79 1 -102 12 -109 10 -7 11 -10 3 -10 -14 0 -14 -81 1 -91 4 -4 3
-15 -2 -26 -12 -21 -6 -35 21 -50 17 -9 17 -11 3 -26 -16 -16 -12 -77 5 -77 5
0 9 -7 9 -15 0 -11 -5 -12 -25 -5 -23 9 -25 7 -25 -20 0 -47 33 -68 103 -62 9
1 17 -2 17 -7 0 -14 -27 -20 -38 -9 -20 20 -42 0 -42 -37 0 -26 4 -35 18 -36
146 -5 163 -4 159 11 -11 38 -11 45 0 43 7 -2 24 2 38 7 16 6 25 6 25 0 0 -6
-6 -10 -13 -10 -7 0 -18 -5 -24 -11 -9 -9 -6 -17 14 -32 l25 -20 -23 -13 c-22
-12 -22 -13 -4 -14 11 0 26 -9 33 -21 12 -19 15 -19 30 -6 15 13 19 13 30 1
10 -11 10 -14 -2 -14 -8 0 -17 -4 -20 -8 -3 -5 13 -9 34 -9 22 0 40 3 40 7 0
4 12 5 28 3 26 -4 26 -4 8 11 -11 9 -25 16 -32 16 -7 0 -26 12 -43 28 -23 21
-29 34 -27 60 2 28 -1 33 -16 29 -10 -3 -18 -1 -18 5 0 6 13 8 30 6 19 -3 29
-1 27 6 -2 6 -31 11 -65 12 -34 0 -56 -3 -49 -8 17 -11 -52 -9 -78 2 -11 5
-14 9 -7 9 9 1 12 13 10 39 -3 36 -4 37 -45 40 -54 4 -56 22 -3 22 22 0 40 -4
40 -10 0 -5 5 -10 11 -10 5 0 7 4 4 10 -3 5 0 7 9 4 8 -3 17 -12 20 -21 4 -8
12 -13 20 -10 18 7 60 -38 51 -53 -6 -9 1 -10 26 -5 18 4 68 8 110 8 l76 0 -1
39 c0 23 -5 38 -13 38 -7 0 -12 -5 -10 -11 1 -6 -4 -14 -11 -16 -8 -3 -10 1
-5 13 5 14 2 16 -18 10 -67 -20 -84 -12 -87 40 -2 21 -4 39 -5 41 -2 1 -47 5
-101 9 -56 4 -92 10 -84 15 13 8 15 12 17 51 2 35 17 6 20 -39 1 -7 20 -10 58
-8 31 2 64 0 73 -5 11 -6 21 -5 28 2 17 17 23 5 13 -29 -15 -53 -3 -60 99 -57
50 1 97 7 104 13 7 6 17 7 22 3 4 -4 3 1 -4 10 -11 14 -10 18 5 27 14 8 16 12
6 22 -10 10 -16 10 -25 1 -7 -7 -17 -12 -22 -12 -6 0 -4 5 4 10 11 7 5 10 -25
11 -23 1 -31 4 -17 6 12 2 22 9 22 16 0 8 3 8 12 -1 15 -15 55 -16 64 0 4 7 3
8 -4 4 -7 -4 -12 -2 -12 3 0 6 7 11 15 11 9 0 18 7 21 15 4 8 11 15 16 15 6 0
5 -7 -3 -16 -10 -13 -10 -17 1 -24 8 -5 21 -5 30 0 21 11 109 9 107 -3 -1 -5
4 -12 12 -15 8 -2 11 0 7 6 -3 6 -1 12 5 14 6 2 12 21 14 41 l2 37 -56 -5
c-120 -12 -326 -11 -356 2 l-30 12 45 -1 c25 -1 53 2 63 7 10 4 23 2 31 -4 7
-6 15 -8 19 -5 3 3 20 7 39 8 18 2 39 4 46 5 7 0 12 9 10 19 -1 9 1 23 5 30 6
9 -3 12 -35 14 -58 2 -63 1 -94 -6 -24 -6 -26 -5 -15 8 7 9 18 13 23 10 5 -3
9 0 7 7 -4 31 3 43 11 21 8 -19 13 -21 29 -13 14 8 20 7 24 -3 6 -16 49 -14
55 3 3 10 -2 11 -19 6 -17 -5 -21 -4 -14 3 16 17 68 23 77 9 5 -8 8 -7 8 6 0
9 5 17 10 17 11 0 -3 -34 -17 -42 -5 -3 -3 -3 4 -2 7 2 15 -2 19 -8 5 -7 8 -7
13 1 5 7 18 7 44 -1 34 -10 39 -10 53 10 8 11 21 28 29 36 11 11 12 16 2 19
-6 3 -4 6 7 6 13 1 17 -4 13 -18 -3 -12 0 -18 7 -15 6 2 19 -10 28 -26 10 -17
13 -28 8 -25 -16 10 -24 -24 -12 -51 12 -25 42 -33 42 -11 0 8 4 7 10 -3 5 -8
10 -10 10 -4 0 7 9 14 21 17 12 3 18 10 14 16 -3 6 1 11 10 11 9 0 13 5 10 10
-4 6 -11 8 -16 5 -5 -4 -9 -1 -9 4 0 6 8 11 19 11 11 0 18 -7 18 -17 0 -48 3
-53 33 -53 28 0 45 -16 18 -17 -15 -1 -51 -8 -89 -18 -15 -4 -30 -2 -33 4 -7
11 -105 4 -119 -9 -4 -4 -3 -19 2 -33 8 -20 18 -27 36 -27 21 0 25 5 25 30 0
23 4 30 20 30 18 0 26 -20 21 -52 0 -5 6 -8 14 -8 8 0 14 3 14 8 -3 19 2 33
11 27 5 -3 6 -13 3 -22 -5 -14 -1 -13 24 5 29 21 43 20 43 -2 0 -26 -65 -44
-165 -45 -106 -2 -125 -9 -125 -47 0 -17 6 -24 20 -24 11 0 23 -7 26 -15 4 -8
14 -15 23 -15 14 -1 13 -3 -3 -15 -15 -11 -22 -12 -27 -3 -4 7 -5 16 -3 20 3
4 -6 8 -20 8 -14 0 -26 -6 -26 -12 -1 -9 -5 -8 -13 2 -7 9 -20 15 -30 14 -14
-2 -14 -1 -1 3 11 3 14 12 10 29 -4 16 -2 24 6 24 9 0 8 3 -2 10 -26 17 -39
11 -38 -17 1 -48 -1 -53 -23 -53 -11 0 -17 5 -14 10 4 6 10 8 14 6 4 -3 5 12
2 32 -5 31 -11 38 -33 40 -26 3 -27 2 -18 -28 5 -19 5 -28 -1 -25 -5 4 -9 1
-9 -4 0 -6 7 -11 16 -11 8 0 12 -4 9 -10 -3 -5 -28 -10 -54 -10 -34 0 -53 -5
-64 -18 -19 -20 -23 -37 -7 -27 6 4 8 -5 6 -22 -2 -15 -2 -23 1 -18 2 6 15 15
28 21 19 9 27 9 35 -1 8 -10 65 -14 65 -5 0 1 9 3 20 5 11 2 21 9 23 14 6 17
22 13 22 -4 0 -17 38 -35 57 -28 7 3 18 1 24 -3 16 -9 -14 -22 -53 -23 -23 -1
-28 -6 -28 -26 0 -18 5 -25 20 -25 11 0 20 -5 20 -11 0 -7 21 -10 58 -9 31 1
63 2 71 1 26 -2 4 -12 -34 -16 -21 -2 -41 -9 -46 -16 -6 -10 -10 -10 -23 0 -9
7 -34 14 -56 15 -22 1 -43 6 -47 11 -5 4 0 5 10 2 13 -5 17 -1 17 21 -1 23 -2
24 -11 10 -5 -10 -17 -18 -24 -18 -18 0 -19 12 -4 27 16 16 4 44 -16 37 -8 -4
-22 0 -31 7 -13 10 -16 9 -21 -9 -3 -12 -9 -22 -14 -22 -5 0 -6 6 -4 13 4 9
-15 12 -75 12 -62 0 -79 -3 -75 -13 3 -7 1 -10 -4 -7 -5 3 -12 1 -16 -4 -3 -6
-12 -8 -20 -4 -11 4 -15 -2 -15 -21 0 -14 0 -29 0 -33 0 -5 20 -8 45 -8 39 0
45 -3 45 -21 0 -12 8 -30 17 -41 10 -10 15 -15 12 -10 -9 12 1 47 13 47 5 0
16 -7 24 -15 9 -8 11 -15 5 -15 -6 0 -11 -7 -11 -15 0 -12 16 -15 84 -15 47 0
87 4 90 9 3 5 16 7 29 3 20 -5 21 -4 8 11 -9 12 -10 17 -2 17 6 0 14 -7 17
-15 7 -18 35 -20 53 -2 10 10 11 9 6 -5 -4 -10 -3 -18 1 -18 20 1 33 17 37 50
4 34 4 34 5 -6 l2 -42 125 -1 c69 -1 125 2 125 7 0 5 14 7 30 4 28 -4 30 -2
30 26 0 24 -5 31 -22 35 -22 3 -22 4 -3 12 11 5 24 14 28 22 4 7 13 13 19 13
9 0 9 -3 0 -12 -17 -17 -15 -68 2 -68 23 0 38 26 23 39 -8 6 -17 8 -20 4 -4
-3 -7 0 -7 7 0 9 10 11 33 7 44 -7 103 6 99 22 -1 7 2 10 8 6 6 -4 10 5 10 22
0 22 2 25 10 13 5 -8 10 -25 10 -37 0 -13 6 -23 14 -23 11 0 12 8 4 40 -8 31
-15 40 -31 40 -15 0 -18 3 -10 11 14 14 175 19 170 5 -2 -6 -19 -11 -38 -11
-25 0 -35 -5 -37 -19 -2 -11 0 -16 7 -12 6 4 8 -1 6 -14 -3 -16 1 -20 23 -20
15 0 36 -3 47 -6 16 -4 21 0 23 20 1 14 -3 26 -8 26 -6 0 -10 5 -10 11 0 6 7
9 15 6 8 -4 17 -2 20 3 4 6 11 10 16 10 6 0 8 -4 4 -9 -3 -5 7 -10 22 -10 51
-2 63 -4 63 -13 0 -4 -3 -8 -7 -9 -53 -4 -75 -8 -80 -13 -12 -12 12 -24 57
-30 31 -4 39 -3 25 3 -17 8 -15 10 13 10 19 1 31 -3 27 -9 -10 -15 28 1 44 19
13 15 13 15 8 0 -7 -20 31 -30 78 -22 25 5 28 3 17 -8 -9 -9 -46 -14 -131 -15
-65 0 -123 -4 -130 -8 -6 -4 -10 -17 -10 -29 1 -17 2 -18 6 -4 6 22 29 22 42
0 7 -13 12 -15 23 -5 8 6 24 9 36 5 16 -4 22 -1 22 11 0 9 5 16 11 16 6 0 8
-9 4 -21 -10 -30 9 -38 79 -33 85 6 96 11 96 42 0 29 16 20 22 -13 3 -22 60
-37 89 -23 39 18 29 71 -17 88 -31 12 -23 30 13 30 21 0 24 -2 13 -15 -10 -12
-10 -15 2 -15 34 0 53 55 23 66 -8 4 -15 14 -15 23 0 14 -2 14 -10 1 -8 -13
-10 -12 -10 3 0 9 6 17 13 17 27 0 37 22 22 50 -12 24 -12 30 -1 39 18 15 27
49 14 57 -5 3 -7 12 -4 20 3 7 0 17 -7 21 -7 5 -12 14 -13 21 -1 6 -2 18 -2
26 -3 26 -64 34 -255 32 -176 -1 -190 -2 -204 -21 l-15 -20 4 20 c3 16 16 22
73 31 39 6 79 15 89 19 12 6 17 5 13 -2 -4 -7 43 -11 140 -12 110 -1 148 1
154 11 13 19 11 62 -3 76 -8 8 -9 15 -1 23 16 16 4 59 -17 59 -10 0 -21 7 -24
16 -4 10 -2 13 6 8 6 -4 17 1 25 11 10 14 13 15 14 4 1 -8 5 2 9 21 10 42 4
126 -12 158 -9 17 -9 25 0 34 17 17 15 58 -2 58 -8 0 -16 7 -20 15 -5 13 -114
15 -900 15 l-894 0 -6 -25 c-4 -14 -10 -25 -15 -25 -4 0 -6 11 -3 25 l4 25
-85 0 c-66 0 -86 -3 -91 -15 -3 -9 1 -15 11 -15 13 0 13 -3 2 -16 -8 -9 -12
-37 -10 -72 1 -31 -1 -54 -5 -50 -4 4 -8 27 -9 50 -1 24 -2 60 -3 81 l-2 37
-257 0 -258 0 -3 -40 -2 -40 87 0 c64 -1 83 -3 71 -11 -10 -5 -28 -9 -40 -8
-13 1 -77 1 -143 1 l-120 -2 3 -45 4 -45 157 -1 c121 -1 144 -3 101 -10 -30
-4 -107 -8 -170 -9 -63 -1 -148 -4 -187 -7 l-73 -5 0 -39 0 -39 140 0 140 0 0
34 c0 19 5 38 10 41 6 4 10 -10 10 -34 l0 -41 78 -2 c42 0 85 -1 95 0 11 1 17
-5 17 -20 0 -17 -3 -19 -12 -10 -9 9 -90 12 -305 12 -161 0 -293 -1 -294 -2 0
-2 -2 -22 -5 -45 l-6 -43 151 0 151 0 0 40 c0 22 5 40 10 40 6 0 10 -18 10
-40 0 -28 4 -40 14 -40 8 0 17 6 19 13 4 10 6 10 6 0 1 -8 14 -13 31 -13 23 0
30 4 30 20 0 23 4 24 30 10 13 -7 21 -7 25 0 12 20 26 10 15 -10 -10 -19 -8
-20 46 -20 32 0 54 -3 50 -7 -4 -5 -17 -8 -29 -9 -45 -1 -64 -13 -60 -38 6
-27 -13 -44 -30 -27 -15 15 -27 14 -27 -4 0 -12 16 -15 86 -15 59 0 85 -3 82
-11 -3 -8 -44 -11 -129 -11 -69 1 -130 2 -135 3 -27 5 -34 -3 -34 -40 l0 -38
68 -6 c37 -4 100 -7 141 -7 94 0 88 -9 -7 -12 l-72 -2 0 -43 0 -43 78 -1 c42
0 86 -4 97 -9 11 -5 15 -9 8 -9 -6 -1 -16 -20 -21 -43 l-10 -43 -1 36 c-1 33
-4 37 -33 42 -18 2 -84 5 -145 6 l-113 2 0 -41 0 -40 43 -1 c23 -1 74 -2 112
-4 39 -2 85 -3 103 -4 44 -1 41 -19 -5 -23 -44 -4 -56 -25 -16 -30 17 -2 29
-10 31 -20 4 -23 -17 -23 -33 -1 -14 19 -45 11 -45 -12 0 -12 15 -15 78 -16
90 -1 158 -16 81 -18 -41 -1 -47 -4 -51 -25 -8 -39 8 -56 54 -56 80 0 26 -14
-75 -19 -109 -6 -109 -6 -98 -62 2 -12 54 -21 140 -25 46 -2 86 -5 88 -8 3 -2
-17 -7 -44 -11 -26 -4 -54 -8 -60 -10 -17 -6 -16 -47 1 -71 13 -17 17 -17 37
-6 28 18 39 2 37 -53 -1 -40 -1 -40 -5 -5 -6 54 -12 65 -25 52 -7 -7 -33 -12
-59 -12 -45 0 -48 -2 -54 -30 -10 -46 7 -60 79 -61 49 -1 55 -3 30 -8 -46 -11
-50 -17 -46 -55 4 -34 6 -36 40 -36 23 0 33 -3 26 -10 -5 -5 -46 -10 -92 -11
l-82 -1 0 -37 0 -36 126 -2 c70 -1 128 -4 131 -7 2 -2 -30 -7 -71 -11 l-76 -7
0 -39 0 -39 61 0 c37 0 58 -4 54 -10 -4 -6 -55 -10 -120 -10 l-113 0 3 -42 3
-43 69 -2 c37 -1 86 -2 108 -2 39 -1 40 -16 0 -23 -13 -2 -22 -14 -26 -33 l-7
-30 -1 33 -1 33 -82 -5 c-46 -3 -87 -5 -92 -6 -4 0 -6 -7 -3 -15 10 -25 -10
-25 -21 0 -9 19 -19 25 -42 25 -16 0 -30 -5 -30 -11 0 -5 4 -7 10 -4 16 10 -1
-28 -19 -44 -14 -11 -13 -12 7 -6 15 4 22 3 20 -5 -2 -9 30 -13 115 -15 88 -2
117 1 117 10 0 7 -7 15 -15 19 -22 8 -18 26 5 26 14 0 20 -7 20 -24 0 -24 16
-36 51 -36 11 0 17 -4 14 -10 -3 -5 -38 -10 -76 -10 -39 0 -68 -3 -66 -7 3 -5
-4 -17 -14 -27 -17 -17 -19 -18 -19 -3 0 9 5 17 10 17 6 0 10 4 10 8 0 5 -7 9
-15 9 -11 0 -15 -11 -15 -40 0 -22 3 -38 6 -34 3 3 16 2 28 -3 13 -4 29 -4 36
0 9 5 19 5 27 -1 6 -6 26 -8 42 -6 17 3 43 2 59 -2 25 -8 23 -9 -21 -16 -46
-7 -48 -8 -45 -39 4 -38 38 -51 39 -14 1 20 2 19 10 -6 4 -17 7 -31 6 -32 -2
-1 -163 -13 -190 -14 -4 0 -7 -18 -5 -40 l2 -40 109 0 c69 0 106 -4 102 -10
-3 -5 -19 -10 -36 -10 -28 0 -29 -2 -29 -45 0 -44 1 -45 31 -45 17 0 28 -4 24
-10 -3 -5 -20 -10 -36 -10 -21 0 -32 -6 -38 -22 -7 -20 -8 -19 -14 11 -5 22
-11 30 -19 25 -7 -4 -30 -9 -52 -10 -57 -2 -56 -2 -56 -24 0 -11 -6 -20 -14
-20 -9 0 -12 7 -9 20 3 11 1 20 -3 21 -5 0 -25 2 -44 5 -50 7 -80 -3 -80 -25
0 -29 -36 -33 -49 -5 -9 20 -18 24 -51 24 -36 0 -40 -2 -40 -25 0 -14 -4 -25
-10 -25 -5 0 -10 9 -10 20 0 22 2 21 -60 25 -51 3 -161 22 -168 30 -3 3 13 5
36 5 l41 0 -6 38 c-3 20 -7 38 -8 40 -2 2 -64 0 -138 -4 l-135 -7 2 -26 c2
-38 -18 -42 -22 -3 l-3 32 -76 0 c-73 0 -97 -7 -40 -12 15 -1 27 -6 27 -10 0
-4 7 -4 17 -1 11 5 14 3 8 -6 -4 -8 -2 -17 5 -21 7 -4 -12 -8 -44 -8 -47 1
-56 4 -56 19 0 17 -25 19 -50 4 -6 -3 -14 4 -18 16 l-9 23 -7 -25 c-5 -13 -8
-27 -7 -31 1 -5 -13 -8 -29 -8 -17 0 -30 5 -30 10 0 6 -10 10 -23 10 -12 0
-27 8 -33 18 -6 9 -24 18 -40 19 -16 0 -21 -1 -11 -4 9 -2 17 -9 17 -14 0 -6
4 -7 10 -4 6 3 10 -3 10 -14 0 -12 -5 -21 -11 -21 -5 0 -7 6 -3 13 4 6 -2 4
-14 -7 -23 -20 -30 -14 -36 31 -3 16 -13 18 -82 18 l-79 0 -6 -35 -6 -35 -2
37 -1 36 -122 2 c-68 0 -139 5 -158 9 l-35 9 35 1 c19 1 51 6 71 11 34 9 36
13 35 48 -1 29 -5 37 -18 36 -39 -3 -15 14 27 19 26 4 55 16 68 28 12 12 16
18 8 14 -11 -6 -13 -4 -8 8 4 11 2 14 -9 10 -7 -3 -14 0 -14 6 0 7 -29 11 -82
12 -66 0 -78 2 -58 10 14 6 37 11 53 11 15 1 27 5 27 10 0 4 7 8 15 8 10 0 15
10 15 29 0 26 -3 29 -47 34 -27 4 -76 4 -110 2 -37 -3 -63 0 -63 5 0 6 9 10
20 10 17 0 20 7 20 52 0 61 7 60 15 -2 3 -24 7 -46 10 -48 2 -2 67 -1 145 3
l140 7 -2 35 c-1 20 -7 37 -13 38 -5 2 -68 6 -140 9 -71 3 -132 6 -135 7 -3 2
29 5 70 8 l75 6 0 42 0 43 -115 1 c-63 1 -101 4 -85 8 17 3 30 12 29 19 -1 6
-2 28 -2 48 -2 25 -6 33 -14 28 -9 -5 -10 -4 -3 4 6 6 58 12 120 14 l110 3 0
35 c0 40 17 36 -185 41 -69 1 -104 4 -77 6 l47 4 2 42 1 42 4 -37 4 -38 145 0
144 0 0 35 c0 20 -6 38 -12 40 -7 2 -78 7 -158 10 -222 8 -260 16 -120 24 103
6 110 11 95 68 -6 24 -9 25 -70 21 -41 -2 -61 0 -55 7 4 6 9 31 11 57 4 44 2
47 -21 51 -24 4 62 11 88 8 8 -1 23 6 33 15 19 17 20 17 13 -1 -6 -15 -4 -17
10 -12 10 4 24 7 32 7 10 0 14 12 14 38 0 27 3 33 10 22 5 -8 10 -25 10 -38 0
-22 1 -22 140 -21 l140 1 0 44 0 44 -49 0 c-30 0 -51 -5 -54 -12 -4 -10 -8
-10 -15 0 -7 10 -24 12 -63 7 -30 -3 -61 -6 -69 -6 -8 1 -59 1 -113 1 l-99 -1
4 55 c2 43 0 56 -12 60 -8 2 17 4 55 5 39 1 75 5 82 9 7 4 14 23 15 42 l3 35
-77 3 c-43 2 -78 7 -78 12 0 6 61 10 150 10 l150 0 0 41 0 40 -75 -2 c-41 -1
-78 1 -82 4 -3 4 -43 8 -87 9 l-81 2 75 5 75 6 3 43 c4 53 22 55 22 2 l0 -40
60 0 c33 0 60 4 60 8 0 5 -14 7 -30 4 -17 -2 -37 1 -45 8 -10 9 -15 9 -15 1 0
-6 -4 -11 -10 -11 -5 0 -10 11 -10 25 0 23 2 24 27 14 15 -5 38 -7 51 -4 15 4
21 2 17 -5 -3 -5 -1 -10 4 -10 6 0 11 7 11 16 0 13 6 15 28 9 15 -4 39 -7 55
-6 15 1 27 -4 27 -9 0 -6 5 -8 10 -5 6 4 7 12 4 18 -5 9 -4 9 6 0 15 -13 5
-33 -16 -33 -8 0 -12 -4 -9 -10 3 -5 19 -10 36 -10 28 0 29 2 29 45 l0 45
-147 -1 c-157 -2 -301 5 -310 15 -4 3 1 6 10 6 12 0 17 12 20 48 l3 47 2 -48
2 -48 148 3 147 3 -2 42 c-2 41 0 43 33 49 18 3 32 9 30 13 -2 3 7 7 21 8 14
0 29 7 33 13 6 9 9 8 13 -6 2 -10 5 -2 6 19 l1 38 -153 -3 c-118 -2 -154 0
-154 10 0 8 24 12 84 12 l83 0 0 45 0 45 -142 1 c-123 2 -134 3 -78 10 36 4
129 8 208 10 l142 1 0 44 0 44 -107 -1 c-158 -2 -247 0 -241 6 3 3 53 5 111 6
l106 0 -3 35 c-4 50 10 62 18 15 l6 -41 145 0 c154 0 149 -2 146 50 -1 23 0
23 10 7 6 -10 9 -27 6 -38 -5 -17 1 -19 61 -20 37 -1 73 -1 80 0 6 1 12 -3 12
-9 0 -5 -7 -10 -15 -10 -11 0 -15 -11 -15 -42 0 -29 3 -38 9 -29 5 8 7 19 5
26 -3 6 2 12 11 12 17 0 20 -13 5 -22 -6 -4 -8 -11 -4 -16 4 -6 11 -6 20 2 13
10 18 6 15 -13 0 -5 9 -8 22 -8 19 1 20 2 5 11 -21 12 -14 35 13 42 15 4 19 2
15 -9 -3 -8 0 -14 6 -14 7 0 6 -5 -2 -15 -11 -13 -4 -15 54 -15 42 0 66 4 66
11 0 7 -10 9 -25 5 -21 -5 -25 -3 -26 16 0 22 -1 22 -9 3 -5 -11 -9 -14 -9 -7
-1 6 -10 12 -21 12 -25 0 -27 20 -2 21 37 3 60 6 86 13 18 4 25 3 21 -4 -3 -5
2 -10 13 -10 15 0 19 -5 15 -20 -3 -11 0 -20 6 -20 6 0 10 15 8 36 l-2 36
-110 -3 c-67 -3 -110 0 -110 6 0 10 13 14 62 17 29 1 31 4 35 44 l3 43 -75 6
c-119 10 -106 13 58 14 l152 1 0 35 0 35 -146 0 c-128 0 -145 -2 -140 -16 3
-8 2 -13 -3 -9 -17 10 -41 -7 -41 -29 -1 -21 -1 -21 -12 -1 -6 11 -12 22 -14
23 -1 2 -11 -5 -22 -16 -14 -14 -17 -23 -10 -30 7 -7 -87 -10 -288 -10 -165 0
-285 3 -269 7 27 6 30 10 27 39 -2 18 1 32 7 32 6 0 11 -16 11 -35 l0 -35 150
0 150 0 0 40 0 40 -331 0 c-261 0 -329 -3 -323 -12 6 -10 4 -10 -7 0 -9 9 -68
12 -221 12 -160 0 -208 -3 -208 -12 0 -10 -2 -10 -8 -1 -10 15 -134 15 -144
-1 -6 -8 -8 -7 -8 2 0 9 -36 12 -144 12 -106 0 -146 -3 -149 -12 -4 -10 -6
-10 -6 0 -1 9 -276 12 -1341 12 l-1340 0 0 -2800z m7714 2565 c5 -13 10 -15
13 -7 3 6 11 12 19 12 8 0 14 5 14 10 0 6 4 10 10 10 5 0 9 -16 7 -35 -1 -24
-6 -34 -15 -30 -8 3 -20 -2 -28 -10 -14 -13 -13 -15 3 -16 16 0 16 -1 -2 -10
l-20 -9 20 3 c11 2 19 9 18 15 -2 7 6 12 18 12 11 0 18 -4 15 -9 -9 -13 36
-28 74 -24 19 3 31 1 27 -3 -9 -9 -344 -7 -358 2 -5 3 -9 11 -9 17 0 8 3 8 8
2 4 -5 33 -11 65 -11 44 -2 57 1 57 13 0 8 -6 13 -12 10 -7 -2 -18 3 -25 12
-17 21 -16 28 2 28 9 0 14 -6 11 -14 -3 -7 -1 -13 4 -13 6 0 10 10 11 23 0 12
3 16 6 9 5 -13 23 -7 23 8 0 5 -14 7 -31 5 -17 -3 -43 2 -58 10 -25 14 -24 14
27 13 29 -1 58 4 64 10 12 12 29 0 42 -33z m-4114 -449 c0 -68 -4 -107 -12
-115 -11 -11 -10 -13 0 -7 13 7 16 -82 11 -319 -1 -55 -1 -116 0 -135 2 -19 3
-79 4 -132 2 -96 18 -114 19 -20 0 35 2 42 8 26 11 -28 9 -224 -1 -246 -6 -10
-4 -18 4 -21 9 -3 9 -7 1 -18 -10 -11 -12 -140 -4 -159 3 -7 3 -3 -4 -105 -4
-49 -12 -93 -18 -97 -9 -5 -8 -10 0 -21 8 -9 11 -34 8 -63 -2 -27 -5 -54 -5
-60 -1 -7 -50 -16 -121 -24 l-121 -13 6 -26 c3 -14 1 -33 -5 -41 -9 -13 -10
-13 -10 0 0 10 -3 11 -8 4 -10 -17 -119 -23 -119 -7 0 9 16 11 53 8 41 -4 53
-2 58 11 3 9 4 20 0 25 -3 5 0 9 6 9 6 0 9 4 6 9 -5 8 -28 11 -83 13 -12 0
-24 6 -27 14 -3 8 -10 14 -17 14 -6 0 -8 -7 -5 -16 3 -8 2 -13 -2 -10 -4 2
-37 6 -72 8 -47 2 -65 -1 -66 -9 -1 -7 -2 -22 -3 -33 0 -11 -5 -20 -9 -20 -4
0 -6 16 -4 35 3 21 0 35 -7 35 -6 0 -11 -4 -11 -9 0 -5 -7 -12 -16 -15 -14 -5
-15 -4 -4 9 11 13 6 15 -36 15 -54 0 -87 -13 -60 -23 9 -4 16 -2 16 3 0 6 7
10 16 10 14 0 14 -3 4 -15 -7 -8 -22 -15 -34 -15 -11 0 -30 -7 -41 -16 -19
-14 -19 -15 3 -20 12 -4 20 -9 18 -13 -2 -3 48 -5 111 -3 83 3 113 0 108 -8
-4 -6 -23 -11 -43 -10 -20 0 -57 -2 -82 -4 -25 -2 -50 0 -57 5 -7 6 -13 6 -17
0 -4 -5 -15 -8 -26 -6 -23 4 -23 2 -11 -42 7 -26 7 -31 -5 -26 -8 3 -11 9 -8
14 3 5 0 9 -5 9 -6 0 -11 -4 -11 -9 0 -13 -33 -7 -38 7 -2 7 1 12 6 12 5 0 12
9 15 20 5 20 -2 23 -43 22 -8 0 -24 -3 -34 -8 -12 -5 -17 -4 -13 3 4 6 -7 10
-26 11 -18 0 -37 9 -45 19 -10 13 -16 14 -19 6 -3 -7 -13 -13 -24 -13 -10 0
-19 -4 -19 -10 0 -5 4 -10 8 -10 5 0 17 -18 27 -40 10 -22 25 -41 34 -44 14
-3 230 -1 240 3 2 0 -2 8 -9 16 -17 20 6 21 26 1 10 -11 11 -15 1 -19 -9 -3
-9 -8 2 -21 12 -14 12 -16 -4 -10 -13 5 -16 4 -11 -4 4 -7 1 -12 -6 -13 -10 0
-10 -2 0 -6 6 -2 10 -9 7 -13 -8 -13 -34 0 -46 23 -10 18 -9 19 10 14 12 -3
19 -1 15 4 -8 13 -38 11 -53 -3 -10 -11 -12 -10 -9 2 2 9 -3 14 -12 12 -8 -2
-40 -4 -70 -4 -30 -1 -58 -6 -62 -12 -5 -8 -8 -7 -8 2 0 8 -16 12 -44 12 -25
0 -48 5 -51 10 -4 6 7 10 24 10 36 0 37 3 14 29 -40 43 -47 55 -50 81 -2 21 3
29 20 35 12 4 28 6 35 6 6 -1 12 5 12 13 0 12 -6 13 -32 5 -18 -5 -34 -13 -36
-18 -2 -5 -15 -4 -31 2 -24 9 -32 7 -52 -12 -26 -24 -76 -23 -95 3 -6 9 -14
12 -19 8 -4 -4 -2 3 6 15 10 16 20 21 39 17 20 -3 21 -3 6 4 -28 12 -3 25 48
25 23 0 44 5 48 11 6 8 8 8 8 -1 0 -7 -7 -16 -16 -21 -23 -13 4 -22 31 -11 11
4 14 8 7 8 -7 1 -12 7 -10 14 1 6 -3 27 -11 45 -10 24 -20 32 -40 33 -23 2
-24 2 -3 6 12 2 20 9 17 14 -4 5 -2 9 4 9 5 0 12 -6 14 -12 3 -8 6 -6 6 4 1
14 7 16 29 12 20 -4 30 0 40 15 7 13 8 21 2 21 -5 0 -10 8 -10 18 0 13 -2 14
-9 3 -5 -7 -11 -9 -14 -4 -16 26 12 33 119 30 132 -4 144 -2 144 29 0 27 -15
38 -38 29 -32 -14 -64 -14 -86 0 -27 17 -96 16 -96 -2 0 -8 6 -13 13 -11 7 2
14 0 15 -4 2 -9 -6 -10 -30 -2 -9 3 -15 11 -12 17 3 9 -7 11 -36 9 -33 -3 -40
-8 -41 -26 -1 -20 -2 -20 -6 -1 -10 39 -23 45 -92 44 -36 -1 -56 -4 -43 -6 12
-2 22 -11 22 -20 0 -11 -6 -14 -24 -9 -16 4 -32 -1 -50 -15 -14 -11 -26 -16
-26 -10 0 5 -12 11 -27 13 -18 2 -29 10 -31 22 -3 11 0 16 7 12 6 -4 11 -2 11
3 0 6 9 11 21 11 11 0 17 -4 14 -10 -3 -6 4 -10 17 -10 18 0 20 2 8 10 -11 7
-11 10 -2 10 7 0 11 4 8 9 -3 4 7 6 22 4 22 -3 24 -2 7 5 -17 8 -16 10 16 21
35 11 48 38 25 53 -6 4 1 11 16 17 14 5 28 16 31 23 4 10 8 10 16 -2 16 -22
13 -38 -8 -45 -14 -4 -18 -14 -16 -38 2 -26 7 -33 27 -35 14 -2 33 4 41 13 10
10 18 11 22 5 4 -7 46 -10 106 -9 l99 1 0 40 c0 23 -4 37 -10 33 -5 -3 -10 -2
-10 3 0 5 14 13 32 18 28 8 50 44 27 44 -5 0 -8 5 -6 11 2 12 -14 23 -57 35
-16 5 -32 16 -34 24 -4 12 -2 13 9 4 12 -9 56 -10 139 -3 14 1 99 -8 110 -12
3 -1 8 -1 13 0 4 0 7 -5 7 -13 0 -11 -9 -13 -36 -9 -24 4 -39 2 -44 -7 -6 -9
-9 -7 -14 7 -6 19 -8 20 -41 5 -30 -14 -34 -20 -28 -41 9 -41 18 -46 72 -43
35 3 51 8 51 18 0 8 -5 14 -12 14 -6 0 -9 2 -6 5 6 6 59 -15 68 -26 3 -3 27
-8 53 -11 37 -4 47 -3 43 7 -6 16 35 7 46 -9 6 -8 8 -8 8 0 0 6 -8 22 -19 35
-10 13 -16 30 -14 37 3 8 -7 12 -31 12 -25 0 -36 4 -36 15 0 8 7 15 15 15 9 0
18 7 21 15 4 8 11 15 16 15 6 0 8 -7 4 -15 -8 -22 72 -21 89 1 10 15 13 15 29
-1 13 -13 20 -15 29 -6 16 16 27 14 28 -6 0 -11 3 -13 6 -5 6 15 23 6 23 -14
0 -8 -8 -14 -17 -14 -31 0 -6 -11 33 -14 37 -4 63 12 64 39 0 6 -5 3 -10 -5
-9 -13 -11 -13 -20 0 -12 19 -1 29 34 32 26 2 54 32 39 41 -12 7 -136 1 -162
-8 -20 -6 -23 -4 -18 10 5 11 3 15 -5 12 -7 -2 -12 -9 -11 -15 2 -6 -6 -10
-17 -9 -11 1 -20 6 -20 12 0 7 -25 11 -70 11 -80 -1 -81 11 0 16 l55 3 2 35 1
35 -8 -30 -8 -30 -1 28 c-1 34 17 56 41 49 16 -4 16 -6 1 -36 -8 -17 -12 -28
-8 -24 5 4 14 0 22 -10 8 -9 12 -11 8 -4 -8 16 7 16 23 0 8 -8 53 -12 140 -13
l127 0 1 30 c3 55 16 96 29 91 8 -3 16 6 19 20 4 13 10 24 14 24 9 0 4 202 -5
211 -15 14 -91 13 -108 -1 -10 -8 -34 -13 -61 -11 -26 1 -44 -2 -44 -8 0 -6
-4 -11 -10 -11 -5 0 -10 10 -10 21 0 16 5 20 20 16 16 -4 20 0 20 20 0 25 1
26 20 8 16 -14 23 -15 34 -6 8 7 24 10 36 6 15 -5 22 -1 30 19 5 14 7 32 4 40
-3 8 0 17 7 22 9 5 10 2 6 -9 -3 -10 -2 -17 3 -17 6 0 10 -7 10 -15 0 -8 -5
-15 -10 -15 -14 0 21 -35 43 -43 11 -4 17 -1 17 9 0 8 -4 13 -9 10 -13 -8 -28
14 -36 52 -6 28 -4 32 14 32 18 0 21 6 21 48 0 34 -3 43 -10 32 -5 -8 -10 -12
-11 -7 -1 4 -2 10 -3 15 -1 4 -4 12 -8 18 -4 6 2 17 13 24 10 8 19 20 19 28 0
20 -23 39 -43 36 -9 -1 -17 4 -17 12 0 8 10 14 25 14 20 0 25 5 25 24 0 14 6
31 14 38 12 12 9 16 -15 27 -33 15 -40 54 -11 70 9 6 13 11 8 11 -5 0 -1 9 9
20 11 12 16 29 13 45 -3 14 -1 25 4 25 5 0 6 5 2 12 -4 7 -3 8 4 4 8 -5 12
-43 12 -110z m3420 -75 c17 -6 19 -10 8 -10 -9 -1 -22 -9 -28 -18 -9 -16 -10
-15 -5 5 4 13 2 22 -4 22 -6 0 -11 -7 -11 -15 0 -8 -5 -15 -11 -15 -5 0 -7 -4
-4 -10 3 -5 15 -10 26 -10 20 0 22 -6 19 -59 -2 -29 1 -33 17 -26 10 4 23 7
28 6 6 -1 24 -3 40 -5 17 -2 35 -4 40 -5 6 -1 3 -6 -5 -11 -19 -13 -130 -10
-130 3 0 6 -4 6 -12 0 -18 -14 -76 -24 -82 -14 -3 4 8 8 25 9 37 1 44 7 44 35
1 12 4 28 8 35 9 14 6 15 -17 6 -9 -3 -13 -10 -10 -15 3 -5 -7 -4 -22 1 -15 6
-35 8 -46 5 -29 -10 -80 5 -74 20 3 8 0 16 -7 18 -9 3 -8 8 2 20 17 21 31 22
31 3 0 -21 42 -48 54 -36 13 13 29 13 21 0 -3 -5 -2 -10 2 -10 5 0 14 20 21
46 7 25 16 42 21 39 5 -3 13 0 17 6 4 8 9 8 13 1 4 -6 18 -15 31 -21z m-3567
-21 c-42 -6 -80 -29 -66 -39 4 -3 14 -18 22 -33 8 -15 17 -26 20 -24 3 2 11
-2 18 -9 7 -8 9 -15 5 -17 -4 -2 -15 -19 -25 -38 l-17 -35 20 24 c15 17 20 19
20 8 0 -9 5 -19 12 -23 7 -4 8 -3 4 4 -5 8 3 12 24 12 27 0 30 -2 17 -14 -8
-8 -30 -16 -50 -18 l-35 -3 16 -37 c16 -36 32 -50 32 -28 0 6 8 10 17 10 13 0
14 -3 6 -11 -6 -6 -9 -17 -7 -23 3 -7 -9 -12 -30 -13 -19 -1 -49 -9 -66 -18
-27 -14 -31 -21 -27 -43 5 -24 4 -25 -8 -9 -8 12 -15 14 -20 8 -8 -14 -25 -14
-25 0 0 16 26 39 36 31 5 -3 1 2 -8 13 -13 14 -32 19 -78 20 -33 1 -60 -1 -60
-5 0 -3 -28 -5 -62 -6 -35 0 -76 -2 -91 -4 -27 -4 -28 -7 -26 -50 3 -75 0
-110 -11 -110 -5 0 -10 7 -10 15 0 8 -6 15 -12 16 -10 0 -10 2 0 6 6 2 12 12
12 21 0 15 -16 17 -152 15 -103 -1 -153 -5 -158 -13 -5 -9 -9 -9 -14 -1 -4 6
-32 11 -62 11 -30 0 -54 4 -54 9 0 5 10 7 22 3 16 -4 20 -2 16 10 -5 13 -2 13
30 2 32 -10 40 -10 54 3 14 12 15 19 7 30 -6 7 -7 13 -2 13 5 0 10 7 10 14 0
8 -3 15 -6 14 -33 -3 -91 4 -91 12 0 6 7 10 15 10 8 0 15 6 16 13 0 10 2 10 6
0 7 -18 32 -16 39 2 6 14 8 13 19 -1 17 -23 45 -12 38 15 -4 15 -1 21 10 21
10 0 13 -6 10 -20 -3 -13 0 -20 8 -21 8 -1 23 -2 34 -3 11 -1 56 -3 99 -4 46
-1 76 -6 70 -11 -11 -11 -107 -23 -100 -13 2 4 -27 7 -65 7 -56 0 -71 -3 -83
-20 -19 -25 -19 -30 0 -49 10 -11 31 -16 60 -14 24 0 47 -2 50 -5 8 -8 34 18
35 35 0 7 5 4 10 -7 9 -19 16 -20 65 -15 30 3 59 11 64 16 12 12 2 47 -10 39
-12 -8 -21 11 -14 28 4 12 12 13 35 7 25 -8 29 -6 29 12 0 12 3 18 7 15 3 -4
15 0 25 10 10 9 18 12 18 7 0 -5 14 -10 30 -11 70 -4 80 -6 80 -19 0 -17 16
-18 26 -2 4 7 3 8 -4 4 -7 -4 -12 -3 -12 3 0 18 79 24 105 7 13 -9 32 -16 42
-16 15 0 16 2 3 10 -13 8 -11 11 8 16 23 7 31 33 10 35 -7 0 -22 3 -33 5 -18
4 -139 5 -217 1 -18 -1 -36 -6 -40 -12 -4 -5 -8 0 -8 13 0 12 5 22 11 22 6 0
8 9 4 20 -4 12 -2 20 5 20 8 0 10 -10 8 -25 -6 -29 -1 -31 24 -8 22 19 25 41
3 23 -9 -8 -15 -9 -15 -2 0 6 5 14 10 17 6 4 8 11 5 16 -4 5 -1 9 4 9 6 0 11
-7 11 -16 0 -8 4 -12 10 -9 7 4 7 -2 1 -19 -9 -23 -9 -24 20 -16 16 5 30 10
32 11 1 1 12 -3 25 -10 21 -11 22 -10 22 24 0 20 -5 36 -12 37 -7 0 -25 2 -41
3 -15 1 -31 5 -34 9 -4 4 17 6 47 4 50 -3 55 -5 59 -28 3 -23 4 -24 12 -5 8
18 8 17 6 -5 -1 -14 -8 -24 -16 -22 -7 1 -11 -5 -9 -15 2 -14 13 -18 46 -19
23 0 42 3 42 8 0 7 -32 13 -53 9 -5 -1 -6 3 -2 9 3 5 15 10 26 10 10 0 19 5
19 11 0 5 -4 7 -10 4 -12 -7 -12 2 0 30 8 19 9 19 9 1 1 -11 4 -16 7 -13 4 3
14 2 23 -3 24 -12 46 4 36 26 -8 18 -8 18 -12 2 -5 -19 -28 -24 -37 -9 -3 5 3
11 14 14 14 4 18 10 14 22 -4 10 -14 15 -25 12 -11 -3 -19 -1 -19 4 0 5 5 9
10 9 6 0 10 9 10 20 0 11 -4 20 -10 20 -5 0 -10 5 -10 11 0 5 4 8 9 4 5 -3 12
-2 14 2 3 5 31 6 64 4 58 -5 58 -5 16 -11z m-1254 -380 c7 0 9 -5 6 -11 -5 -7
14 -9 58 -8 73 2 87 -3 87 -35 0 -29 18 -46 50 -46 14 0 31 -4 37 -8 7 -5 37
-5 67 -2 30 3 52 2 50 -2 -3 -4 1 -8 8 -8 7 0 4 -6 -7 -13 -21 -13 -96 -17
-89 -5 3 4 -2 5 -10 2 -9 -3 -16 -13 -16 -21 0 -9 -7 -21 -15 -27 -13 -9 -10
-11 14 -13 23 -2 29 1 24 12 -3 8 0 15 6 15 6 0 11 -6 11 -13 0 -19 47 -40 56
-25 4 6 3 8 -3 5 -6 -4 -8 3 -5 18 2 14 8 25 13 25 5 0 6 -6 3 -13 -3 -8 -1
-25 5 -39 6 -17 6 -25 -2 -25 -7 0 -27 -3 -44 -7 -34 -8 -42 1 -21 22 8 8 8
12 1 12 -6 0 -16 -7 -24 -16 -9 -11 -22 -14 -46 -9 -21 4 -33 2 -33 -5 0 -6
-4 -9 -9 -6 -9 6 -21 -16 -21 -38 0 -7 11 -18 24 -24 29 -13 96 4 96 24 0 25
20 25 46 1 19 -18 23 -27 14 -32 -9 -5 -11 -4 -6 3 4 7 3 12 -3 12 -5 0 -18 3
-28 6 -10 3 -14 2 -8 -3 12 -9 12 -29 3 -53 -4 -8 -9 -22 -11 -30 -4 -10 -6
-8 -6 6 -1 19 -9 22 -69 28 -41 4 -80 3 -96 -4 -17 -6 -25 -6 -21 0 4 6 -3 8
-17 6 -13 -3 -23 -5 -23 -7 0 -1 -17 -3 -37 -4 -21 -1 -38 2 -38 7 0 5 -5 6
-12 2 -7 -4 -8 -3 -4 4 4 7 2 12 -5 12 -7 0 -9 3 -6 6 4 4 13 1 21 -5 9 -7 21
-9 28 -5 7 5 25 7 40 5 16 -1 28 2 28 8 0 6 14 10 33 9 l32 -3 -2 62 c-1 45 2
63 13 67 8 3 14 1 14 -4 0 -4 14 -11 30 -15 17 -4 30 -11 30 -15 0 -5 7 -7 17
-3 14 5 12 8 -7 15 -16 6 -20 12 -13 19 17 17 3 49 -21 48 -11 0 -44 2 -73 4
-41 4 -56 1 -72 -14 -14 -13 -21 -15 -24 -6 -3 9 -7 9 -17 0 -19 -17 -4 -63
20 -63 11 0 20 5 20 10 0 6 7 10 16 10 9 0 12 -5 8 -12 -5 -7 -3 -8 7 -2 8 4
20 9 28 11 10 1 10 -3 -3 -15 -12 -13 -34 -17 -85 -17 -38 0 -67 3 -64 8 2 4
-1 7 -6 7 -6 0 -11 -4 -11 -10 0 -5 -24 -8 -52 -7 l-52 2 -2 -35 c-1 -19 4
-38 10 -42 7 -5 6 -8 -4 -9 -8 0 -4 -5 10 -9 l25 -8 -27 -1 c-15 -1 -29 -5
-33 -11 -3 -6 -15 -6 -29 0 -13 5 -26 7 -29 4 -2 -3 -7 2 -10 11 -5 11 1 15
23 15 25 0 30 4 30 24 0 13 3 31 6 40 4 11 1 16 -10 16 -9 0 -16 -5 -16 -11 0
-5 -5 -7 -12 -3 -6 4 -38 9 -72 11 -37 3 -67 11 -76 20 -13 14 -13 15 0 7 20
-11 50 -13 50 -2 0 4 9 8 21 8 11 0 18 -4 15 -8 -3 -4 9 -7 27 -6 17 1 33 7
35 13 2 6 8 11 13 11 6 0 7 -4 4 -10 -7 -11 0 -12 75 -10 30 1 58 6 61 12 4 6
11 8 17 5 14 -10 45 30 38 48 -3 9 -10 13 -16 10 -5 -3 -10 -2 -10 4 0 5 -18
12 -40 16 -60 10 -51 30 12 28 52 -3 64 -4 140 -18 22 -3 46 -1 59 5 15 9 24
9 32 1 6 -6 18 -11 27 -10 9 0 6 4 -7 9 -21 8 -30 38 -24 73 1 4 -29 7 -66 6
-85 -2 -94 -1 -91 9 1 4 -3 18 -10 32 -12 22 -11 23 1 8 8 -10 20 -18 26 -18z
m647 -188 c-2 -4 3 -16 11 -27 11 -14 17 -16 20 -7 3 6 9 10 14 6 5 -3 16 2
25 10 17 18 34 21 34 7 0 -5 -8 -12 -17 -14 -12 -3 -10 -5 7 -6 65 -3 71 -10
68 -65 l-3 -51 -64 -2 c-35 -1 -66 -4 -69 -8 -3 -3 -7 -18 -8 -34 -2 -27 0
-28 45 -28 137 -2 128 1 124 -39 -3 -49 -11 -54 -24 -15 l-12 33 -66 -5 c-36
-3 -88 -2 -116 2 -27 3 -66 2 -85 -3 -36 -10 -55 -26 -42 -36 12 -9 8 -60 -5
-60 -20 0 -26 20 -11 37 9 12 9 15 1 9 -9 -5 -13 1 -13 23 0 16 -7 34 -15 38
-9 5 22 8 74 8 70 0 87 3 79 13 -7 8 -7 12 0 12 5 0 13 -7 16 -16 8 -21 29 -6
23 17 -3 10 -1 22 4 25 5 3 7 9 4 14 -3 5 6 12 20 16 14 3 25 10 25 15 0 5 5
9 11 9 5 0 7 -6 3 -12 -6 -10 -3 -9 8 0 13 10 22 11 37 3 14 -8 22 -8 27 0 4
8 9 7 15 -2 6 -10 9 -8 9 9 0 13 -3 21 -8 18 -4 -2 -16 2 -27 10 -10 8 -14 14
-8 14 7 0 15 -5 19 -11 4 -8 9 -7 15 2 12 19 11 39 -2 39 -5 0 -7 -4 -4 -10 8
-13 3 -13 -30 0 -17 7 -24 7 -20 0 8 -13 -8 -13 -21 0 -5 5 -42 10 -82 11 -66
1 -86 9 -63 23 5 4 11 1 13 -6 3 -8 13 -2 28 15 21 24 48 39 36 19z m5772
-170 c15 1 33 8 40 15 7 7 19 13 25 13 7 0 3 -7 -7 -15 -17 -13 -15 -14 32
-12 55 2 59 -1 41 -35 -10 -18 -9 -20 9 -16 16 4 20 1 19 -13 -1 -11 -5 -19
-9 -19 -4 0 -8 -4 -8 -9 0 -5 20 -7 45 -4 28 3 45 0 45 -6 0 -24 56 -10 94 24
22 19 43 35 48 35 11 0 10 -18 -2 -25 -5 -3 -7 -12 -3 -20 8 -22 48 -18 64 5
8 12 30 23 54 27 35 6 38 4 28 -9 -7 -8 -10 -18 -6 -21 11 -12 23 -8 23 8 0 8
7 15 16 15 14 0 14 -1 0 -16 -21 -21 -20 -27 4 -21 11 3 20 1 20 -4 0 -5 -21
-10 -47 -10 -27 -1 -59 -3 -73 -4 -66 -8 -744 -16 -738 -10 4 4 24 9 44 11 19
2 44 6 55 9 10 4 19 2 19 -2 0 -5 19 -7 43 -3 31 4 42 10 41 22 -1 10 4 14 12
11 8 -3 14 1 14 11 0 9 5 16 10 16 6 0 10 -4 10 -8 0 -5 13 -18 28 -29 22 -16
36 -19 66 -14 36 6 39 9 40 39 1 41 -7 47 -56 43 -65 -4 -78 5 -76 52 l1 42 4
-37 c4 -34 7 -37 31 -36z m-6549 -39 c26 -15 34 -16 51 -5 12 7 25 10 30 7 6
-4 10 0 10 7 0 10 3 9 10 -2 6 -9 5 -17 -3 -22 -9 -6 -9 -10 0 -16 8 -5 -3 -8
-27 -7 -21 0 -42 4 -46 7 -9 10 -77 -3 -93 -18 -12 -11 -12 -18 -2 -37 7 -13
11 -30 9 -38 -3 -14 16 -15 70 -3 14 3 22 0 22 -9 0 -9 -9 -12 -29 -9 -16 2
-38 -1 -50 -7 -18 -10 -21 -8 -27 15 -6 21 -11 25 -33 20 -22 -5 -23 -5 -8 5
10 6 26 8 35 4 14 -5 15 -4 5 6 -7 7 -13 24 -13 39 0 23 -3 25 -45 25 -25 0
-45 -3 -45 -7 0 -5 5 -8 10 -8 6 0 10 -8 10 -17 0 -15 -2 -15 -9 -4 -5 8 -16
11 -25 8 -9 -4 -16 -1 -16 6 0 7 -12 14 -27 15 -28 2 -53 18 -31 20 7 0 51 3
98 6 62 3 88 9 95 20 13 21 36 20 74 -1z m-55 -190 c8 3 17 3 21 -1 4 -4 12
-7 18 -7 5 0 12 -5 14 -11 2 -7 -8 -9 -29 -6 -18 2 -30 1 -26 -3 4 -4 29 -9
55 -11 27 -2 40 -1 30 2 -9 3 -14 10 -11 15 4 6 13 4 24 -6 15 -13 16 -23 9
-48 -7 -26 -6 -34 8 -44 19 -14 28 -16 91 -13 47 2 54 -6 17 -20 -23 -9 -32
-35 -26 -72 0 -5 -3 -8 -8 -8 -6 0 -7 15 -4 34 6 39 -5 49 -56 48 -48 0 -63
-4 -79 -22 -12 -13 -13 -13 -8 3 6 19 -14 23 -32 5 -8 -8 -15 -8 -26 2 -10 8
-29 10 -53 6 -21 -3 -46 -6 -55 -7 -23 0 -39 -31 -27 -50 5 -7 9 -10 9 -6 0 5
5 5 11 1 11 -6 -5 -23 -22 -24 -11 0 -16 47 -7 64 7 13 4 16 -14 17 -22 0 -22
1 -3 8 11 5 23 7 28 4 4 -2 7 0 7 5 0 5 9 12 21 15 12 3 18 10 14 16 -3 7 3
11 15 11 16 0 20 -4 16 -15 -5 -13 8 -15 90 -14 78 1 93 3 84 15 -7 7 -9 22
-5 34 7 23 1 27 -70 34 -27 3 -51 5 -52 5 -2 1 -3 8 -3 16 0 8 -6 13 -12 11
-7 -1 -10 -1 -5 1 4 3 7 14 7 26 1 21 1 21 15 3 8 -10 21 -16 29 -13z m299
-238 c7 -1 22 5 35 13 19 12 22 12 22 0 0 -10 10 -13 33 -11 17 2 66 4 107 6
l76 2 -4 -27 c-3 -19 -10 -28 -22 -28 -10 0 -26 -3 -35 -7 -15 -5 -16 -3 -6
15 6 11 19 22 28 25 10 2 -2 2 -27 -1 -47 -5 -69 -23 -70 -57 -1 -11 -4 -14
-7 -7 -2 6 -13 12 -23 12 -10 0 -21 -6 -23 -12 -3 -7 -3 4 0 25 l6 38 -44 -3
c-35 -2 -45 -7 -47 -23 l-4 -20 16 20 c16 19 17 19 13 -17 -4 -29 -1 -37 14
-41 21 -6 25 -32 7 -43 -8 -5 -9 0 -6 14 5 17 2 22 -12 22 -10 0 -21 -6 -23
-12 -3 -7 -6 -3 -6 10 -1 17 -7 22 -26 22 -14 0 -25 -4 -25 -10 0 -5 -3 -9 -7
-9 -23 4 -32 -3 -26 -18 6 -15 5 -16 -8 -3 -14 12 -12 18 15 46 19 20 33 28
37 22 4 -6 7 5 6 25 0 21 -5 37 -10 37 -4 0 -6 -4 -3 -8 2 -4 1 -14 -5 -22 -7
-12 -9 -11 -10 5 l0 20 -9 -20 c-5 -11 -9 -15 -9 -9 -1 17 -60 11 -71 -6 -8
-13 -10 -12 -10 3 0 10 -8 17 -20 17 -11 0 -20 4 -20 9 0 6 10 8 23 5 47 -9
73 -7 105 7 17 7 32 18 32 24 0 5 7 1 16 -10 8 -11 20 -20 27 -20z m6797 -56
c24 -4 7 -7 -52 -9 -49 -1 -92 -4 -98 -5 -5 -1 -14 -3 -18 -4 -5 0 -10 -21
-10 -46 l-2 -45 52 0 c28 0 49 -2 47 -4 -2 -2 -99 -7 -216 -11 l-212 -7 6 23
c4 13 8 18 11 11 3 -9 43 -12 148 -12 l144 0 0 44 c0 41 -2 44 -32 49 -18 3
-97 3 -175 0 -102 -4 -143 -2 -143 6 0 7 32 11 95 11 91 0 95 1 96 23 l2 22 4
-22 c4 -23 7 -23 154 -23 114 0 149 3 148 13 -1 6 0 21 1 32 2 14 4 11 9 -10
5 -25 12 -31 41 -36z m-4018 -364 c7 -8 63 -57 124 -109 149 -126 236 -208
229 -214 -7 -7 86 -102 100 -102 5 0 -15 23 -45 51 -30 27 -50 49 -43 47 7 -2
43 -32 80 -68 38 -36 89 -83 113 -106 72 -65 83 -81 67 -87 -9 -3 -14 1 -13
10 0 9 -35 45 -79 80 l-80 65 75 -72 c41 -39 64 -66 51 -59 -28 13 -82 61
-149 132 -25 26 -50 47 -55 47 -14 0 -108 81 -102 89 2 4 -16 27 -40 51 -44
43 -45 43 -45 18 0 -19 22 -47 83 -108 122 -122 79 -89 -68 52 -70 68 -142
133 -160 145 -18 12 -35 26 -37 30 -1 5 -18 20 -36 36 -19 15 -30 27 -25 27
11 0 129 -97 191 -157 l43 -42 -6 32 c-9 40 -34 69 -54 62 -8 -3 -12 -3 -8 1
8 8 -11 34 -25 34 -5 0 -6 -6 -2 -12 4 -7 5 -11 1 -8 -3 3 -5 8 -4 11 1 3 -14
24 -33 46 -66 74 -80 93 -70 93 5 0 15 -7 22 -15z m-1232 -100 c18 -44 41
-109 51 -145 10 -36 40 -127 67 -202 31 -88 45 -138 37 -138 -15 0 -67 113
-90 195 -10 33 -37 123 -61 201 -60 191 -61 233 -4 89z m3995 -1240 c151 -40
284 -176 330 -339 23 -79 16 -209 -15 -289 -12 -32 -23 -57 -25 -55 -1 2 8 55
22 118 31 147 27 184 -32 298 -91 174 -223 262 -397 262 -39 0 -68 4 -68 10 0
15 119 12 185 -5z m-5079 -22 c38 -5 44 -8 29 -15 -14 -6 -10 -7 15 -3 19 2
42 0 50 -6 11 -8 9 -9 -10 -3 -24 7 -24 6 -7 -19 l17 -27 -26 10 c-44 17 -169
12 -230 -9 -71 -25 -178 -102 -208 -149 -13 -21 -31 -43 -40 -51 -14 -12 -16
-11 -16 10 0 22 0 22 -15 3 -8 -10 -15 -15 -15 -11 0 18 94 147 124 170 53 41
153 87 208 96 73 12 69 12 124 4z m4950 -95 c-1 -14 6 -24 17 -26 12 -2 17 3
17 18 0 16 4 20 16 16 9 -3 20 -6 25 -6 5 0 14 -11 19 -25 10 -28 28 -33 36
-11 9 24 64 -13 64 -43 0 -18 4 -22 19 -18 26 6 66 -34 50 -50 -13 -13 -2 -36
14 -30 7 2 21 -8 32 -21 13 -18 16 -27 7 -30 -21 -7 -13 -32 11 -33 21 0 21
-1 2 -9 -15 -7 -16 -9 -4 -9 25 -1 31 -48 7 -54 -22 -6 -24 -43 -2 -55 23 -13
9 -48 -21 -56 -26 -7 -32 -25 -15 -42 5 -5 7 -19 4 -30 -4 -15 -13 -20 -35
-18 -16 1 -30 -3 -31 -9 0 -7 -2 -16 -3 -22 -2 -5 -4 -21 -5 -35 -1 -14 -4
-19 -7 -12 -2 6 -11 12 -18 12 -25 0 -25 17 0 46 30 35 63 94 65 120 4 33 0
45 -10 39 -5 -3 -10 3 -10 14 0 15 6 21 21 21 59 0 -32 197 -107 235 -79 39
-110 49 -154 49 -79 0 -223 -83 -204 -117 4 -6 4 -9 -1 -5 -4 4 -16 -3 -26
-15 -15 -19 -21 -20 -38 -9 -11 6 -31 12 -43 12 -24 0 -19 10 7 14 9 1 20 8
25 15 4 8 19 14 33 14 20 0 24 3 19 21 -3 11 -10 24 -16 28 -7 5 -7 8 2 8 18
0 43 26 34 35 -4 4 3 2 15 -6 28 -17 39 -6 25 25 -10 23 -9 24 28 28 27 2 41
-1 45 -10 7 -20 28 -3 22 19 -6 22 31 38 43 19 5 -8 9 -7 13 4 9 22 14 20 13
-6z m-4976 -43 c0 -28 27 -35 36 -10 4 11 11 12 23 5 12 -6 22 -5 29 2 9 9 12
4 12 -21 0 -27 3 -32 16 -27 9 4 23 1 30 -5 8 -6 20 -9 27 -6 10 4 13 -2 9
-19 -3 -17 1 -26 14 -30 30 -11 49 -37 46 -61 -2 -15 2 -23 11 -23 20 0 25
-18 16 -58 -6 -27 -3 -38 16 -57 26 -28 35 -31 35 -11 0 8 5 18 10 21 6 4 10
-10 9 -37 -1 -24 -3 -35 -6 -25 -6 22 -63 24 -63 2 0 -8 -4 -15 -8 -15 -5 0
-8 20 -8 44 1 26 -5 50 -13 58 -11 11 -12 9 -6 -9 3 -13 2 -23 -3 -23 -11 0
-23 50 -23 91 0 18 -14 39 -44 67 -52 48 -86 67 -135 76 -19 3 -29 3 -22 0 25
-12 10 -24 -30 -24 -24 0 -63 -9 -87 -20 l-43 -20 23 -19 c13 -10 24 -29 24
-42 0 -13 6 -24 13 -25 6 -1 22 -2 34 -3 16 -1 11 -6 -23 -24 l-44 -24 -8 23
c-4 12 -19 25 -32 28 -14 4 -25 15 -27 28 -2 13 -11 24 -20 26 -23 4 -54 -48
-69 -113 -19 -87 4 -160 86 -270 14 -20 14 -21 -20 -17 -35 4 -45 15 -25 27
23 14 -50 67 -80 58 -10 -3 -9 0 3 7 29 19 12 90 -22 90 -14 0 -4 43 10 48 14
6 10 50 -5 59 -22 12 -9 62 14 56 23 -6 32 26 13 48 -10 12 -10 19 3 38 14 19
17 20 27 7 8 -10 17 -13 26 -7 16 11 21 53 6 64 -6 5 -3 7 7 3 10 -3 21 1 26
11 6 11 11 12 16 4 12 -18 25 -13 40 18 17 32 52 47 60 25 7 -18 36 -18 36 -1
0 12 32 35 53 36 4 1 7 -10 7 -24z m4584 -142 c-28 -72 -26 -232 3 -293 18
-37 21 -40 17 -15 -5 27 -3 26 20 -14 14 -23 26 -46 26 -50 0 -12 110 -131
133 -143 12 -6 53 -19 92 -28 68 -18 106 -18 210 -6 39 5 33 2 -30 -15 -44
-11 -92 -18 -107 -15 -16 3 -28 1 -28 -4 0 -10 35 -17 110 -24 25 -2 2 -3 -51
-2 -90 2 -102 4 -175 41 -112 55 -172 118 -214 225 -28 71 -34 101 -38 185 -3
85 -1 109 18 158 12 32 24 56 27 53 3 -2 -3 -26 -13 -53z m-4214 -411 c-45
-85 -121 -157 -210 -200 -67 -32 -85 -37 -172 -40 -61 -3 -98 -1 -98 6 0 5
-25 22 -56 37 -61 30 -69 44 -11 20 20 -8 44 -15 54 -14 11 0 13 3 5 6 -24 9
-1 22 30 16 19 -4 29 -2 25 3 -3 6 10 11 30 11 63 2 123 14 120 25 -2 11 13
21 61 36 39 13 41 8 5 -12 -16 -8 -21 -15 -13 -16 8 0 39 18 69 41 36 27 52
35 47 23 -11 -30 42 23 76 76 33 50 30 21 -3 -40 l-20 -35 30 35 c17 19 36 51
42 70 7 19 14 30 16 23 3 -7 -10 -39 -27 -71z m5934 -453 c-3 -5 6 -9 20 -9
14 0 28 -4 31 -10 3 -5 23 -9 43 -9 l37 1 -30 8 c-22 6 -25 8 -9 9 12 0 36 -5
54 -13 l32 -13 -47 -5 c-26 -3 -51 -11 -55 -18 -5 -9 -9 -9 -14 -1 -5 8 -13 8
-28 0 -13 -7 -58 -9 -121 -7 -64 3 -113 0 -136 -8 -28 -9 -39 -9 -56 1 -20 13
-58 17 -149 15 -55 -1 -89 7 -81 20 3 5 -8 7 -25 5 -35 -4 -49 10 -17 19 41
11 169 7 161 -5 -5 -8 -1 -8 14 0 11 6 40 11 64 12 36 1 39 2 18 9 -15 5 41 8
137 8 91 0 160 -4 157 -9z"/>
<path d="M2675 3590 c-4 -6 -11 -7 -17 -4 -6 4 -6 -1 1 -14 8 -15 8 -22 -2
-25 -6 -3 0 -6 16 -6 15 -1 27 3 27 7 0 4 9 8 21 9 14 1 19 -3 15 -13 -4 -11
6 -14 49 -14 43 0 54 4 58 18 4 16 5 16 6 0 1 -21 46 -25 54 -5 3 6 6 1 6 -12
1 -13 9 -30 19 -38 16 -13 16 -14 -3 -12 -33 2 -45 0 -45 -10 0 -5 9 -7 20 -4
11 3 20 0 20 -6 0 -8 5 -9 19 -1 22 11 37 -2 25 -22 -4 -7 2 -4 14 6 21 18 23
18 42 1 11 -10 23 -15 27 -11 4 4 1 11 -6 15 -7 5 -11 13 -7 19 3 6 1 14 -6
18 -8 5 -6 10 8 15 17 7 17 8 -3 8 -24 1 -32 -24 -10 -32 6 -3 2 -6 -10 -6
-13 -1 -23 4 -23 9 0 6 -8 10 -17 8 -10 -2 -17 3 -15 10 1 6 -7 12 -18 12 -25
0 -26 20 -1 27 20 5 31 29 24 51 -6 15 -278 18 -288 2z"/>
<path d="M2693 3524 c7 -13 -52 -29 -90 -25 -29 3 -37 -14 -20 -40 l15 -20 16
22 c16 23 66 38 66 20 0 -6 -7 -8 -15 -5 -10 4 -15 0 -15 -11 0 -10 6 -15 13
-12 50 19 55 18 50 -4 -5 -19 -3 -21 15 -17 12 4 25 2 28 -3 3 -5 14 -9 26 -9
14 0 18 5 14 15 -3 10 1 15 12 15 15 1 15 2 -2 15 -11 8 -15 15 -9 15 7 0 15
-4 18 -10 9 -14 43 -12 48 3 7 22 -27 36 -88 37 -35 0 -67 5 -74 13 -8 7 -11
7 -8 1z"/>
<path d="M4852 5568 c-1 -32 0 -33 12 -9 11 21 14 21 20 6 3 -10 1 -24 -5 -31
-9 -11 -5 -14 25 -14 24 0 35 4 31 11 -8 12 28 49 47 49 9 0 10 -3 2 -8 -6 -4
-16 -17 -23 -29 l-12 -23 96 0 c86 0 95 2 95 19 0 20 -29 24 -42 6 -4 -5 -10
-2 -14 9 -8 20 13 39 34 31 6 -2 12 0 12 5 0 6 -56 10 -138 10 l-139 0 -1 -32z"/>
<path d="M5150 5560 l0 -40 113 -1 c61 -1 119 -2 127 -3 38 -4 55 11 55 48 l0
36 -92 0 c-83 0 -91 -2 -86 -18 6 -24 -30 -47 -76 -50 -33 -2 -34 -2 -28 33 3
19 2 35 -4 35 -5 0 -9 -18 -9 -40z"/>
<path d="M4718 5498 c7 -7 12 -20 12 -30 0 -21 11 -23 28 -6 7 7 12 8 12 3 0
-15 -14 -32 -30 -37 -8 -3 2 -7 22 -9 20 -3 35 -2 32 2 -2 4 -1 15 2 24 5 12
14 14 37 9 16 -3 27 -2 24 3 -3 5 10 7 29 5 22 -3 34 0 34 8 0 10 3 10 15 0
28 -24 18 -43 -20 -38 -22 2 -34 0 -32 -6 2 -6 29 -11 60 -12 l57 0 0 38 c0
46 14 51 17 7 1 -18 4 -33 6 -35 2 -2 45 -5 96 -7 72 -3 94 -1 98 9 3 8 10 11
17 8 6 -3 3 1 -6 9 -13 10 -15 16 -6 25 22 22 40 14 36 -15 -2 -23 1 -29 20
-31 19 -3 22 1 22 32 0 29 -4 37 -22 40 -13 3 -146 8 -297 10 -210 4 -272 3
-263 -6z"/>
<path d="M4210 5355 c0 -41 2 -45 24 -45 16 0 26 8 31 23 l8 22 4 -23 c4 -22
7 -23 116 -20 l112 3 3 43 3 42 -150 0 -151 0 0 -45z"/>
<path d="M4837 5383 c-16 -15 -6 -31 17 -27 33 6 51 -18 26 -34 -15 -9 -22 -8
-36 5 -15 15 -16 15 -12 -3 2 -15 13 -20 50 -22 43 -3 46 -2 41 19 -4 16 -2
20 8 17 8 -3 13 -12 13 -21 -1 -14 11 -16 85 -15 47 1 71 3 53 5 l-32 4 16 28
c19 32 55 33 47 1 -3 -10 0 -21 6 -24 7 -5 11 2 11 18 0 56 -1 56 -149 56 -76
0 -141 -3 -144 -7z"/>
<path d="M4408 5245 l4 -43 144 -1 145 0 -3 42 -3 42 -145 2 -145 2 3 -44z"/>
<path d="M4251 5171 c-19 -13 5 -20 46 -13 48 7 146 -38 110 -51 -6 -2 -8 -8
-4 -13 5 -5 15 0 23 11 14 19 16 19 28 2 10 -13 21 -15 45 -11 27 6 31 10 31
40 0 19 5 34 11 34 7 0 9 -10 6 -26 -2 -14 2 -31 10 -40 17 -17 115 -19 145
-3 15 8 19 8 14 0 -5 -7 8 -11 41 -11 35 0 44 3 33 10 -12 8 -13 12 -2 19 11
6 9 10 -7 14 -12 3 -19 1 -16 -3 3 -5 0 -12 -6 -16 -8 -4 -9 -3 -5 4 4 7 0 12
-11 13 -11 0 -13 3 -5 6 6 2 9 9 6 14 -3 6 6 8 23 6 15 -2 37 0 48 6 16 8 18
7 8 -4 -19 -19 -17 -69 3 -69 12 0 14 9 12 43 l-3 42 -285 3 c-158 1 -291 -2
-299 -7z"/>
<path d="M4858 5169 c-3 -8 -3 -29 -1 -46 l5 -33 119 0 c66 0 118 3 118 8 -3
19 3 22 21 12 18 -10 20 -8 20 25 l0 35 -102 0 c-57 0 -119 3 -139 6 -25 4
-38 2 -41 -7z"/>
<path d="M5167 5163 c-4 -3 -7 -21 -7 -40 l0 -33 89 0 c70 0 90 3 95 15 3 8
11 15 17 15 8 0 8 -4 -1 -15 -11 -13 -6 -15 32 -15 25 0 47 2 49 5 3 2 3 20 1
40 l-4 35 -132 0 c-73 0 -136 -3 -139 -7z"/>
<path d="M4185 5082 c-3 -3 -23 -5 -45 -4 l-40 2 0 -40 0 -40 103 2 c56 0 113
-2 126 -7 20 -6 23 -4 18 9 -8 21 11 64 32 69 9 3 1 5 -16 6 -18 0 -33 -3 -33
-9 0 -5 -5 -10 -11 -10 -5 0 -7 5 -4 10 4 6 -9 11 -32 12 -21 0 -50 2 -65 3
-15 1 -30 0 -33 -3z"/>
<path d="M4495 5080 c-35 -5 -37 -7 -17 -13 25 -9 29 -35 7 -43 -8 -4 -15 -12
-15 -19 0 -9 30 -12 118 -11 l117 1 3 38 c2 24 -1 39 -10 41 -23 8 -162 12
-203 6z"/>
<path d="M4720 5035 c0 -26 5 -45 11 -45 6 0 9 7 6 15 -4 8 -2 17 3 20 9 6 14
-8 11 -27 0 -5 58 -8 129 -8 l130 0 0 40 c0 35 -3 40 -22 39 -17 -1 -19 -2 -5
-6 29 -8 19 -28 -20 -43 -46 -17 -55 -18 -68 -9 -21 14 -66 16 -82 3 -24 -18
-40 -17 -47 2 -3 8 -2 12 4 9 6 -3 10 0 10 7 0 10 3 9 11 -2 8 -11 12 -12 16
-2 2 6 9 10 14 6 5 -3 9 0 9 6 0 7 7 9 17 6 9 -4 20 -1 24 6 7 10 12 10 28 1
15 -10 20 -9 24 1 6 15 -58 26 -150 26 l-53 0 0 -45z"/>
<path d="M5050 5058 c12 -10 26 -15 31 -12 5 3 6 -2 3 -11 -4 -9 -3 -15 2 -14
20 3 34 -2 34 -12 0 -7 -10 -9 -25 -7 -14 3 -28 1 -31 -3 -3 -5 34 -9 83 -9
87 1 88 1 66 19 -28 23 -29 30 -4 28 11 0 17 -6 13 -12 -3 -5 1 -4 10 2 20 17
30 6 17 -18 -8 -16 -6 -19 11 -19 13 0 20 7 20 20 0 11 6 20 14 20 7 0 16 9
19 20 5 19 0 20 -81 21 -48 1 -113 2 -145 3 -57 1 -58 1 -37 -16z"/>
<path d="M4240 4979 c-23 -8 -25 -14 -22 -49 l4 -40 144 0 144 0 0 40 c0 22 5
40 11 40 5 0 7 -4 4 -10 -3 -5 -1 -18 4 -28 7 -13 7 -22 -1 -30 -9 -9 24 -12
134 -12 141 0 147 1 145 20 -1 20 -17 29 -17 9 0 -5 -4 -7 -10 -4 -19 12 -11
33 10 28 14 -4 20 0 20 10 0 18 -51 22 -344 25 -104 2 -192 4 -195 6 -3 2 -17
-1 -31 -5z"/>
<path d="M4848 4969 c-6 -4 -11 -24 -12 -45 l-1 -39 148 -3 147 -3 0 41 c0 22
-1 41 -2 41 -11 6 -272 13 -280 8z"/>
<path d="M5150 4925 l0 -45 146 0 145 0 -3 43 -3 42 -142 3 -143 3 0 -46z"/>
<path d="M4118 4862 c-37 -3 -38 -5 -38 -42 l0 -38 151 -1 150 -2 -3 43 -3 43
-110 0 c-60 1 -127 -1 -147 -3z"/>
<path d="M4400 4829 c0 -49 7 -51 165 -47 l120 3 3 43 3 43 -145 -2 -146 -2 0
-38z"/>
<path d="M4705 4829 c3 -23 6 -44 8 -45 1 -2 63 -4 137 -5 l135 -1 3 37 c3 34
1 37 -17 32 -11 -2 -21 -1 -23 3 -2 4 -58 11 -126 15 l-122 7 5 -43z"/>
<path d="M5017 4853 c-4 -3 -7 -22 -7 -42 0 -32 3 -36 28 -38 15 -1 32 3 38 8
6 5 19 7 28 3 11 -4 16 0 17 12 0 17 1 17 8 -1 8 -19 9 -18 13 5 5 23 5 23 7
3 1 -20 7 -23 43 -23 40 0 48 9 11 14 -10 2 -19 11 -20 22 -3 18 -2 18 6 -1 7
-14 10 -15 10 -5 1 12 3 12 10 2 4 -8 11 -13 15 -13 20 3 26 0 21 -9 -4 -6 7
-10 24 -10 29 0 31 3 31 34 0 19 -6 36 -12 38 -7 3 -57 6 -111 7 -69 2 -103
-1 -115 -11 -11 -9 -14 -10 -8 0 8 13 -25 18 -37 5z"/>
<path d="M3930 4715 l0 -44 145 0 145 0 0 44 0 45 -145 0 -145 0 0 -45z"/>
<path d="M4240 4720 c0 -46 -22 -40 180 -43 l105 -2 3 43 3 42 -145 0 -146 0
0 -40z"/>
<path d="M4554 4746 c-3 -8 -4 -27 -2 -43 l3 -28 143 -3 142 -3 0 39 0 39 -61
7 c-112 11 -219 8 -225 -8z"/>
<path d="M4868 4743 c-2 -5 -4 -24 -3 -43 0 -30 3 -35 23 -34 12 0 76 1 142 2
l120 2 0 40 0 40 -139 0 c-77 0 -141 -3 -143 -7z"/>
<path d="M5170 4710 l0 -40 78 -1 c74 -1 176 -1 197 0 6 1 11 19 13 41 l2 40
-145 0 -145 0 0 -40z"/>
<path d="M4090 4645 c0 -8 5 -15 10 -15 6 0 10 -5 10 -11 0 -5 -4 -7 -10 -4
-5 3 -10 -3 -10 -14 0 -20 5 -21 145 -21 l145 0 0 40 0 40 -145 0 c-122 0
-145 -2 -145 -15z"/>
<path d="M3780 4608 l0 -41 138 7 c75 4 141 11 147 17 5 6 3 9 -8 9 -9 0 -17
2 -17 4 0 2 -3 11 -6 20 -3 9 -1 16 6 16 6 0 8 -5 4 -12 -4 -7 -3 -8 4 -4 31
19 1 24 -128 25 l-140 0 0 -41z"/>
<path d="M4400 4634 c0 -8 5 -12 10 -9 6 3 10 -1 10 -9 0 -9 -6 -16 -12 -16
-9 0 -8 -4 2 -10 8 -5 75 -10 148 -10 l132 0 0 35 c0 28 -4 35 -19 35 -11 0
-22 -6 -24 -12 -4 -10 -6 -10 -6 0 -1 9 -32 12 -121 12 -102 0 -120 -2 -120
-16z"/>
<path d="M4707 4642 c-10 -16 6 -62 22 -63 9 0 67 -3 130 -6 89 -4 115 -2 122
9 14 21 10 55 -7 62 -23 9 -262 7 -267 -2z"/>
<path d="M5010 4605 l0 -35 146 0 145 0 -3 33 -3 32 -142 3 -143 3 0 -36z"/>
<path d="M5327 4633 c-4 -3 -7 -19 -7 -34 l0 -28 115 0 c63 1 115 4 115 9 0 4
12 5 27 2 24 -4 25 -3 20 19 -4 13 -7 27 -7 32 0 9 -254 10 -263 0z"/>
<path d="M6903 4572 c-19 -3 -23 -10 -23 -37 0 -25 5 -34 23 -39 l22 -7 -25
-10 c-19 -8 -27 -7 -36 6 -10 14 -12 14 -18 0 -3 -8 -13 -15 -23 -14 -16 0
-15 1 2 9 31 13 -187 0 -315 -20 -34 -5 -57 -4 -61 2 -10 16 -169 3 -209 -18
-19 -10 -29 -19 -22 -22 7 -2 10 -7 7 -12 -6 -9 233 -27 304 -22 24 1 50 7 58
13 9 9 13 8 13 0 0 -6 16 -11 35 -11 34 0 46 12 24 26 -8 4 -7 9 2 15 11 7 11
9 1 9 -7 0 -15 -7 -18 -15 -7 -18 -37 -20 -32 -2 6 16 48 37 63 30 7 -2 15
-13 18 -24 3 -10 12 -19 21 -19 9 0 16 -5 16 -11 0 -7 9 -9 24 -5 15 4 26 1
29 -7 3 -8 10 -5 24 10 15 17 23 19 37 11 16 -9 18 -8 13 6 -4 9 -3 15 2 11 5
-3 23 3 40 12 25 15 32 16 43 5 11 -11 9 -13 -7 -12 -34 4 -46 0 -40 -10 3 -5
1 -10 -4 -10 -6 0 -11 -7 -11 -16 0 -13 3 -14 13 -5 8 6 17 8 20 4 4 -3 32 -5
62 -4 30 1 55 -2 55 -7 0 -10 -70 -22 -125 -22 -18 0 -44 -9 -58 -20 -29 -23
-63 -26 -70 -6 -3 8 -14 13 -24 12 -16 -3 -19 -10 -14 -33 0 -5 37 -8 82 -8
44 0 83 -3 86 -8 14 -23 106 25 139 75 10 15 22 28 27 28 9 0 9 42 1 64 -3 9
-15 16 -26 16 -10 0 -16 5 -13 10 3 6 0 10 -7 10 -9 0 -9 3 2 10 11 7 12 10 2
10 -9 0 -11 7 -7 19 10 33 -42 47 -122 33z"/>
<path d="M4250 4520 c0 -35 3 -40 23 -41 12 -1 77 -3 145 -5 l122 -4 0 40 c0
22 -3 41 -7 41 -35 7 -100 4 -110 -4 -9 -6 -13 -6 -13 2 0 7 -28 11 -80 11
l-80 0 0 -40z"/>
<path d="M4560 4541 c0 -5 14 -11 30 -13 17 -3 30 0 30 6 0 5 7 1 15 -10 13
-16 14 -16 9 -1 -4 11 -1 17 10 17 18 0 22 -35 5 -46 -19 -11 -79 -12 -79 0 0
6 -4 6 -12 -2 -6 -6 -10 -14 -7 -16 2 -2 56 -5 119 -6 185 -3 170 -6 170 40
l0 40 -145 0 c-80 0 -145 -4 -145 -9z"/>
<path d="M5182 4501 l3 -36 140 0 140 0 6 38 6 38 -149 -2 -149 -2 3 -36z"/>
<path d="M7558 4472 c-7 -27 70 -57 100 -39 7 5 19 2 28 -7 17 -17 34 -19 109
-10 47 6 51 8 53 35 2 26 -1 29 -30 30 -18 1 -37 0 -43 -1 -12 -4 -83 -2 -109
3 -11 2 -31 -2 -45 -9 -27 -14 -45 -9 -21 6 12 8 9 10 -11 10 -17 0 -28 -6
-31 -18z"/>
<path d="M4228 4453 l-138 -4 0 -39 0 -40 138 0 137 0 3 45 c1 25 1 44 0 43
-2 -1 -65 -4 -140 -5z"/>
<path d="M3780 4405 l0 -46 143 3 142 3 -1 25 c-1 14 -2 32 -3 41 -1 14 -19
17 -141 18 l-140 1 0 -45z"/>
<path d="M4394 4413 l4 -38 135 -3 135 -3 5 33 c2 18 3 36 0 41 -2 4 -67 7
-143 7 l-139 0 3 -37z"/>
<path d="M4701 4441 c-7 -5 -11 -22 -9 -42 l3 -34 67 -3 c56 -2 67 0 62 12 -3
7 -1 17 5 21 10 5 15 -6 13 -26 -1 -4 9 -6 22 -6 18 0 22 4 19 18 -3 11 0 19
6 19 6 0 11 -9 11 -20 0 -22 20 -26 51 -10 13 7 19 21 19 45 l0 34 -128 0
c-71 0 -134 -4 -141 -8z"/>
<path d="M4990 4410 c0 -38 2 -40 30 -40 17 0 29 5 28 11 -2 6 8 13 22 15 14
2 21 1 15 -3 -13 -11 -17 -33 -6 -33 5 0 12 6 14 13 4 10 6 10 6 0 1 -9 25
-13 86 -13 84 0 85 0 87 25 0 14 1 31 2 38 1 8 -21 12 -73 14 -41 0 -106 4
-143 7 l-68 7 0 -41z"/>
<path d="M7496 4275 c-4 -11 3 -19 19 -25 30 -11 34 -24 5 -15 -12 4 -20 2
-20 -5 0 -15 59 -8 69 9 5 8 11 9 15 3 3 -6 16 -8 29 -5 16 3 18 2 9 -5 -11
-7 -10 -10 5 -14 29 -7 55 2 49 18 -3 8 -2 14 3 14 14 0 31 -26 23 -34 -4 -5
22 -5 58 -2 36 3 77 5 93 5 24 1 27 4 27 36 l0 36 -77 -5 c-43 -3 -103 -8
-133 -11 -39 -4 -51 -3 -40 4 12 9 9 11 -13 11 -16 0 -26 -4 -23 -9 10 -15
-32 -20 -51 -5 -24 18 -40 17 -47 -1z"/>
<path d="M6575 4259 c-2 -8 -6 -23 -8 -34 -6 -41 -26 -63 -62 -67 -19 -2 -35
-1 -35 2 0 4 -14 5 -30 2 -26 -4 -30 -8 -24 -26 10 -34 18 -37 108 -43 84 -4
116 4 127 32 2 6 14 10 27 10 21 -1 22 1 7 11 -11 9 -13 13 -4 16 7 2 -14 4
-46 4 -64 -1 -87 18 -35 29 16 4 28 10 26 14 -3 4 11 5 30 3 19 -2 41 1 49 8
9 7 15 8 15 2 0 -13 53 -23 65 -11 5 5 17 9 27 9 10 0 18 5 18 10 0 6 3 9 8 9
4 -1 16 -1 27 0 16 1 17 3 6 10 -8 5 -24 6 -36 1 -15 -6 -29 -4 -42 5 -12 9
-32 12 -49 8 -16 -3 -33 -5 -39 -4 -5 0 -36 4 -67 7 -44 5 -59 3 -63 -7z"/>
<path d="M4096 4223 c-3 -4 -6 -24 -6 -46 l0 -40 38 7 c20 3 83 6 140 6 l103
0 -3 38 c-3 33 -6 37 -30 38 -15 1 -25 -3 -22 -8 3 -4 -2 -11 -11 -15 -10 -3
-20 -1 -24 6 -8 12 -174 25 -185 14z"/>
<path d="M4390 4188 l0 -38 139 0 c77 0 142 3 144 8 3 4 2 22 0 40 l-5 33
-139 -2 -139 -2 0 -39z"/>
<path d="M5315 4220 c-3 -5 0 -10 7 -10 9 0 9 -3 -2 -10 -12 -7 -12 -13 -4
-27 10 -16 28 -18 142 -19 141 -1 143 0 134 53 -4 20 -10 22 -74 22 -38 0 -67
-3 -63 -7 4 -4 11 -8 16 -8 5 -1 14 -2 19 -3 6 0 10 -8 10 -17 0 -12 -6 -15
-22 -10 -13 3 -32 6 -43 7 -11 0 -14 3 -7 6 6 2 12 11 12 19 0 10 -13 14 -46
14 -36 0 -45 -3 -41 -15 4 -8 1 -17 -5 -21 -6 -4 -8 -3 -5 3 4 6 0 16 -7 22
-10 8 -16 9 -21 1z"/>
<path d="M6836 4184 c-11 -8 -39 -14 -62 -14 -35 0 -42 -3 -46 -23 -6 -31 1
-47 19 -47 10 0 14 6 10 20 -6 22 7 35 24 24 8 -4 7 -9 -2 -15 -11 -7 -11 -9
-1 -9 7 0 10 -5 6 -11 -4 -8 1 -9 16 -4 12 4 20 3 17 -1 -3 -5 38 -8 90 -6 66
2 93 0 88 -7 -3 -6 -32 -11 -64 -11 -57 0 -59 -1 -63 -30 -3 -16 -1 -35 3 -41
7 -12 51 -13 129 -4 25 3 57 6 72 5 27 0 51 21 30 28 -6 2 -8 10 -5 19 4 11 2
14 -8 11 -8 -3 -13 -15 -12 -27 2 -13 -1 -20 -7 -16 -6 3 -10 15 -10 27 0 11
-8 22 -20 25 -20 5 -28 23 -10 23 5 0 9 12 8 26 -2 19 -7 24 -20 21 -10 -3
-18 -1 -18 4 0 4 -7 6 -16 2 -9 -3 -20 0 -25 8 -6 10 -9 10 -9 2 0 -7 -7 -13
-15 -13 -8 0 -15 7 -15 15 0 16 -12 20 -23 8 -4 -3 -2 -12 4 -19 15 -18 3 -34
-26 -34 -28 0 -35 16 -23 49 11 30 8 33 -16 15z"/>
<path d="M7988 4195 c-2 -3 -47 -6 -100 -8 -52 -3 -101 -7 -107 -11 -6 -4 -11
-18 -11 -32 0 -18 5 -24 23 -24 12 -1 50 -2 84 -3 35 -2 58 0 52 4 -8 5 -8 13
1 29 13 24 26 18 32 -15 2 -12 11 -19 21 -19 9 1 26 2 37 3 31 2 28 54 -4 69
-13 6 -26 9 -28 7z"/>
<path d="M4140 4120 l-125 -5 -3 -32 -3 -33 74 0 c41 0 102 3 136 6 59 7 61 8
61 35 0 15 -3 29 -7 31 -5 2 -64 1 -133 -2z"/>
<path d="M4638 4123 c-13 -3 -18 -14 -18 -38 l0 -33 126 -1 c135 -2 154 4 154
45 0 19 -6 24 -27 25 -122 5 -221 6 -235 2z"/>
<path d="M5266 4122 c-65 -3 -68 -4 -62 -25 3 -12 6 -27 6 -33 0 -14 62 -17
164 -8 50 4 74 9 65 15 -19 12 -2 11 20 0 12 -7 18 -6 18 2 0 7 3 19 7 27 5
11 -1 15 -21 17 -16 1 -39 4 -53 6 -14 2 -32 1 -41 -4 -9 -4 -20 -5 -25 -1 -5
4 -40 6 -78 4z"/>
<path d="M4919 4113 c0 -5 -2 -18 -3 -31 -4 -30 14 -33 154 -30 l115 3 3 33 3
32 -135 0 c-75 0 -136 -3 -137 -7z"/>
<path d="M6298 4072 c-54 -2 -68 -6 -68 -19 0 -13 7 -14 38 -9 20 3 55 8 77
11 l40 4 -45 -11 c-43 -11 -78 -34 -67 -44 11 -11 87 -7 113 6 21 12 28 12 31
3 6 -18 30 -16 37 3 4 11 14 15 30 12 28 -6 36 -1 52 27 11 19 8 20 -80 20
-50 0 -121 -1 -158 -3z"/>
<path d="M5014 4031 c-2 -2 -4 -22 -4 -43 l0 -38 140 0 140 0 0 39 0 40 -136
3 c-75 2 -138 1 -140 -1z"/>
<path d="M3790 3984 l0 -44 140 0 140 0 0 40 0 40 -87 2 c-49 0 -112 2 -140 3
l-53 3 0 -44z"/>
<path d="M4090 3995 c0 -19 5 -35 10 -35 6 0 10 5 10 12 0 6 3 8 8 4 4 -4 7
-13 7 -19 0 -7 8 -11 18 -11 9 1 46 2 82 3 48 1 65 5 65 15 0 8 7 17 16 20 11
4 14 1 10 -12 -5 -15 0 -18 29 -20 35 -3 35 -3 35 40 0 32 -3 39 -10 28 -6
-10 -10 -11 -10 -2 0 9 -34 12 -135 12 l-135 0 0 -35z"/>
<path d="M4400 4013 c0 -12 3 -14 11 -6 11 11 59 6 59 -7 0 -4 -10 -15 -22
-24 -13 -9 -17 -14 -10 -11 6 3 12 2 12 -4 0 -6 41 -10 107 -9 115 1 137 9
131 50 -3 22 -6 23 -145 26 -130 2 -143 1 -143 -15z"/>
<path d="M4706 4022 c-3 -5 -3 -26 1 -46 5 -33 8 -37 30 -31 13 3 75 6 138 6
l115 1 0 39 0 39 -139 0 c-77 0 -142 -4 -145 -8z"/>
<path d="M5310 3996 c0 -45 8 -47 159 -45 l121 2 0 37 0 37 -140 2 -140 2 0
-35z"/>
<path d="M7870 4023 c0 -7 -11 -13 -24 -13 -17 0 -26 -7 -30 -26 -11 -41 5
-48 97 -45 35 1 37 3 38 34 2 30 2 30 8 -8 3 -22 11 -40 18 -40 6 0 15 -3 19
-7 4 -5 1 -8 -7 -8 -8 0 -20 5 -27 12 -9 9 -15 9 -24 -1 -10 -11 -10 -14 -1
-18 7 -2 15 -19 19 -38 4 -21 13 -35 25 -38 10 -3 19 -11 19 -18 0 -7 -3 -9
-6 -6 -4 4 -20 -1 -37 -11 -22 -13 -31 -14 -34 -4 -5 14 -83 17 -83 2 0 -6 16
-8 38 -5 22 3 32 1 24 -4 -17 -10 8 -23 51 -26 15 -1 33 -10 41 -20 9 -12 15
-15 20 -7 4 7 18 12 31 12 13 0 27 5 31 12 5 8 2 9 -11 4 -14 -5 -15 -4 -7 7
13 16 4 58 -12 56 -25 -3 -36 2 -36 16 0 18 5 18 30 5 11 -6 21 -6 24 -1 10
16 -14 63 -35 68 -20 6 -20 6 1 28 20 21 20 24 4 33 -11 6 -15 17 -12 30 5 19
1 20 -66 17 -44 -1 -74 2 -78 9 -6 8 -8 7 -8 -1z"/>
<path d="M6930 3982 c0 -5 -13 -7 -29 -4 -17 2 -39 -3 -53 -12 -12 -9 -17 -16
-10 -16 7 0 12 -6 11 -12 -3 -27 2 -33 29 -34 15 0 50 -3 77 -6 67 -7 102 0
108 23 3 10 11 19 19 18 10 0 10 -2 0 -6 -23 -9 -3 -20 28 -15 23 3 28 7 20
17 -6 7 -9 19 -8 26 2 10 -6 13 -25 11 -16 -2 -26 1 -23 6 3 5 -6 7 -20 4 -26
-5 -33 -14 -38 -48 -2 -10 -9 -20 -16 -22 -9 -3 -11 1 -7 12 4 9 -3 26 -17 41
-23 25 -46 33 -46 17z"/>
<path d="M4379 3925 c-3 -3 -25 -6 -48 -7 -44 -1 -62 -18 -54 -49 7 -24 42
-29 176 -26 101 2 132 12 90 28 -10 4 -12 8 -5 8 6 1 12 10 12 21 0 15 -7 20
-27 21 -16 0 -53 2 -83 5 -31 3 -58 2 -61 -1z"/>
<path d="M4580 3883 l0 -45 108 6 c59 3 123 5 142 6 35 0 35 0 32 39 l-4 39
-139 0 -139 1 0 -46z"/>
<path d="M5194 3905 c-7 -29 1 -55 16 -55 6 0 8 5 4 11 -5 8 -1 8 14 0 24 -13
92 -15 92 -3 0 4 -5 13 -12 20 -9 9 -8 12 5 12 9 0 17 -7 17 -15 0 -20 37 -39
43 -22 4 9 6 9 6 -1 1 -8 6 -10 13 -6 7 4 29 7 50 5 33 -1 38 1 38 19 0 17 -4
20 -21 15 -16 -5 -20 -3 -17 6 3 8 13 13 22 13 9 -1 15 3 13 10 -4 12 -19 13
-60 2 -18 -6 -33 -4 -44 5 -13 11 -17 11 -20 2 -5 -15 -33 -17 -33 -3 0 6 -27
10 -60 10 -55 0 -60 -2 -66 -25z"/>
<path d="M3965 3911 c-3 -5 -1 -12 5 -16 5 -3 7 -17 4 -31 -8 -32 21 -33 31
-1 5 17 8 18 12 7 3 -8 11 -18 17 -22 17 -12 214 -9 221 2 4 6 4 24 0 40 l-7
30 -138 0 c-76 0 -141 -4 -145 -9z"/>
<path d="M4420 3780 c0 -39 1 -40 38 -41 101 -2 142 -2 195 1 l57 3 0 39 0 38
-145 0 -145 0 0 -40z"/>
<path d="M4095 3700 l-120 -5 0 -42 c0 -22 3 -39 7 -37 4 3 69 5 143 5 l135
-1 0 44 c0 39 -2 43 -22 42 -13 0 -77 -3 -143 -6z"/>
<path d="M4282 3686 c2 -16 9 -21 31 -19 15 1 27 -2 27 -7 0 -6 3 -9 8 -8 17
4 72 -15 72 -25 0 -7 4 -6 10 3 6 10 10 11 10 3 0 -19 89 -17 96 1 3 8 12 12
20 9 10 -4 14 4 14 31 l0 37 -145 -2 c-142 -2 -146 -3 -143 -23z"/>
<path d="M7022 3665 c-9 -16 -70 -27 -78 -14 -8 14 -24 0 -24 -22 0 -16 7 -19
39 -19 22 0 43 -4 46 -10 3 -5 12 -10 18 -10 8 0 7 3 -2 9 -10 6 -3 9 22 9 45
0 56 7 50 32 -3 11 -9 17 -14 14 -5 -3 -9 0 -9 6 0 22 35 5 38 -19 3 -20 8
-22 35 -17 23 4 28 3 17 -4 -12 -8 -9 -10 12 -10 14 0 33 3 42 6 17 7 22 34 6
34 -5 0 -10 7 -10 15 0 13 -15 16 -90 14 -62 -1 -93 -6 -98 -14z"/>
<path d="M4117 3578 c-10 -39 9 -48 98 -48 95 0 132 14 127 48 -3 21 -7 22
-112 22 -103 0 -108 -1 -113 -22z"/>
<path d="M4420 3566 l0 -36 140 0 140 0 0 29 c0 16 -6 31 -12 33 -7 3 -70 6
-140 7 l-128 2 0 -35z"/>
<path d="M5350 3564 l0 -35 83 2 c69 2 85 5 101 23 l19 21 -5 -21 c-5 -18 0
-21 39 -23 42 -2 43 -1 41 28 -1 16 -5 28 -9 25 -4 -2 -10 2 -12 8 -3 7 -6 4
-7 -7 -1 -18 -1 -19 -11 -2 -8 13 -14 15 -29 7 -24 -13 -40 -13 -20 0 10 7
-18 10 -87 10 l-103 0 0 -36z"/>
<path d="M7997 3512 c-20 -2 -35 -7 -32 -13 8 -11 3 -11 -28 0 -21 8 -25 7
-29 -12 -6 -36 2 -56 25 -59 12 -2 -1 -7 -30 -12 -29 -4 -53 -12 -53 -18 0 -5
5 -6 11 -2 6 3 3 -6 -7 -22 -11 -15 -13 -25 -6 -21 6 5 12 4 12 -2 0 -6 -7
-11 -16 -11 -8 0 -12 -4 -9 -10 6 -9 150 -4 167 6 13 8 -4 34 -22 34 -11 0
-22 5 -25 11 -8 12 23 49 41 49 8 0 19 9 26 20 7 11 23 20 35 20 13 0 23 6 23
13 0 18 -40 32 -83 29z"/>
<path d="M4140 3501 c46 -6 36 -20 -10 -15 -14 1 -38 -2 -54 -8 -25 -10 -27
-13 -12 -23 15 -11 15 -13 -3 -18 -15 -3 -20 2 -24 23 -5 21 -13 29 -37 32
-37 6 -40 3 -40 -38 l0 -32 145 -1 145 -1 0 23 c0 29 -35 74 -43 55 -4 -10 -6
-10 -6 0 -1 8 -18 12 -53 10 l-53 -1 45 -6z"/>
<path d="M5369 3391 c-2 -11 3 -66 6 -69 2 -2 12 1 24 7 13 7 22 8 26 1 10
-16 28 -11 21 6 -3 8 -2 13 3 10 5 -3 11 4 14 16 7 27 16 20 19 -14 2 -22 7
-25 33 -23 16 1 32 -1 35 -5 3 -3 24 -5 48 -2 36 3 42 7 42 27 0 13 2 29 5 37
4 10 -23 13 -135 14 -77 0 -140 -2 -141 -5z"/>
<path d="M7336 3381 c-14 -22 -13 -71 0 -71 8 0 14 -8 14 -17 0 -16 -2 -16
-11 -3 -8 12 -9 11 -5 -5 5 -17 1 -21 -20 -23 -22 -2 -25 0 -14 13 10 12 10
15 -4 15 -9 0 -16 -7 -16 -15 0 -18 1 -18 -55 1 -35 11 -70 14 -143 10 -53 -3
-105 -5 -114 -6 -22 0 -25 -45 -5 -65 19 -18 285 -15 297 4 4 8 9 9 11 3 2 -6
39 -12 84 -13 71 -2 80 0 78 16 -1 12 2 14 10 6 7 -7 14 -7 24 0 10 9 13 8 13
-1 0 -7 8 -10 20 -7 11 3 20 1 20 -5 0 -5 5 -6 10 -3 6 4 8 15 5 25 -4 13 2
21 22 29 l28 11 -28 -5 c-16 -3 -35 -1 -42 5 -7 6 -45 12 -84 13 -39 1 -71 4
-71 8 0 3 6 11 13 18 10 11 10 14 0 18 -7 3 -13 13 -13 23 0 22 -16 35 -24 21z"/>
<path d="M7946 3293 c2 -16 1 -22 -2 -15 -3 6 -14 12 -24 12 -10 0 -20 5 -22
12 -6 17 -84 -3 -80 -21 1 -7 -2 -10 -7 -7 -5 4 -12 2 -16 -4 -4 -6 -12 -7
-22 -1 -11 6 -27 3 -50 -10 -26 -15 -33 -16 -33 -5 0 15 -37 32 -47 22 -4 -3
2 -6 13 -7 18 0 18 -1 1 -8 -10 -4 -18 -11 -17 -15 1 -5 -4 -13 -12 -18 -9 -6
-5 -8 12 -6 14 2 24 9 22 17 -1 7 3 11 10 8 7 -2 12 -15 11 -28 l-2 -24 11 23
c9 19 17 22 37 18 42 -10 184 -6 198 6 9 7 13 7 13 -1 0 -6 14 -11 31 -11 16
0 28 4 24 9 -3 5 0 13 6 17 6 3 15 1 19 -6 12 -19 73 -21 65 -3 -3 8 -5 17 -5
19 0 2 -7 4 -15 4 -8 0 -15 6 -15 13 0 9 -3 8 -9 -2 -6 -9 -18 -11 -35 -7 -26
6 -38 28 -13 25 28 -3 48 2 42 11 -3 6 -26 10 -49 10 -41 0 -43 -1 -40 -27z"/>
<path d="M6460 3261 c0 -5 -26 -7 -58 -4 -50 5 -60 3 -66 -12 -6 -16 -4 -16
10 -4 14 12 16 11 13 -6 -3 -11 -14 -21 -25 -23 -16 -2 -23 4 -28 23 -4 14
-11 23 -17 20 -6 -4 -6 -11 -1 -18 5 -7 8 -19 7 -27 -2 -13 18 -15 144 -15
123 0 146 2 146 15 0 8 -6 14 -12 13 -7 -2 -13 2 -13 8 0 5 -4 8 -9 5 -5 -4
-7 3 -4 14 6 21 -20 29 -32 10 -4 -7 -12 -7 -25 0 -23 12 -30 13 -30 1z"/>
<path d="M7853 3198 c15 -5 25 -14 21 -19 -3 -5 -13 -5 -25 2 -11 6 -27 8 -36
5 -12 -5 -12 -8 -1 -20 18 -17 83 -33 74 -17 -4 6 -2 11 3 11 6 0 11 -4 11 -8
0 -5 14 -7 30 -4 18 3 30 0 30 -7 0 -14 116 -15 125 -1 3 6 1 10 -6 10 -7 0
-10 11 -7 30 4 30 -13 43 -27 20 -3 -5 -11 -10 -16 -10 -6 0 -7 5 -4 10 4 6
-31 10 -97 9 -81 0 -97 -3 -75 -11z"/>
<path d="M7198 3193 c-50 -3 -58 -7 -58 -24 0 -24 -24 -51 -35 -41 -5 4 -5 1
-1 -6 5 -8 28 -13 59 -13 127 0 149 -2 133 -11 -27 -15 -18 -23 24 -23 22 0
40 3 40 7 0 5 -9 8 -20 8 -11 0 -20 5 -20 10 0 6 15 10 33 10 37 0 62 31 55
66 -3 17 -13 19 -78 20 -41 0 -101 -1 -132 -3z"/>
<path d="M6147 3162 c-43 -3 -48 -6 -45 -25 2 -13 13 -24 28 -28 16 -4 19 -7
8 -8 -10 -1 -18 -5 -18 -10 0 -6 9 -8 20 -6 11 2 22 0 25 -6 4 -5 39 -6 83 -3
42 3 88 6 101 5 44 -2 70 62 30 74 -11 4 -23 5 -25 2 -8 -8 8 -37 17 -31 11 6
11 1 3 -21 -6 -15 -8 -15 -25 1 -10 9 -15 22 -12 30 3 8 -1 16 -9 19 -19 7
-118 11 -181 7z"/>
<path d="M7117 2904 c-1 -1 -25 -5 -52 -9 -28 -3 -51 -10 -53 -15 -2 -6 -12
-10 -23 -10 -10 0 -19 -5 -19 -11 0 -5 -4 -7 -10 -4 -13 8 -13 2 2 -30 10 -23
16 -26 42 -19 17 4 54 7 83 6 36 0 53 4 57 14 4 11 10 12 25 4 38 -20 69 13
37 39 -11 9 -25 10 -50 2 -21 -5 -36 -6 -36 0 0 5 11 11 25 15 14 4 23 9 20
12 -6 6 -43 11 -48 6z"/>
<path d="M7354 2901 c-82 -8 -113 -34 -80 -67 11 -10 21 -12 40 -4 15 5 26 6
26 0 0 -10 176 -7 187 4 4 4 -1 4 -10 0 -13 -5 -20 -1 -24 14 -3 14 -10 19
-21 15 -14 -5 -15 -3 -4 8 6 7 12 19 12 27 0 14 -9 14 -55 -3 -16 -5 -17 -5
-5 4 8 6 11 10 5 9 -5 0 -37 -4 -71 -7z"/>
<path d="M6605 2876 c-6 -14 -2 -23 16 -37 13 -10 31 -19 39 -19 13 0 13 -1 0
-11 -12 -8 -9 -10 13 -6 15 2 30 0 33 -4 3 -5 11 -9 17 -9 7 0 6 4 -3 10 -8 5
-11 10 -6 10 5 0 2 8 -5 17 -8 9 -9 14 -2 10 6 -4 13 -1 16 5 3 10 9 10 25 1
13 -8 23 -9 27 -3 9 14 47 12 43 -2 -3 -7 -19 -16 -37 -21 -18 -4 -31 -10 -28
-13 8 -8 77 7 72 16 -3 4 2 13 10 20 13 10 15 9 15 -9 0 -12 7 -24 16 -28 21
-8 44 22 43 56 0 23 -1 24 -8 6 -8 -20 -8 -20 -15 1 -7 22 -21 23 -100 8 -29
-5 -37 -4 -32 4 4 7 3 12 -3 12 -5 0 -13 -5 -17 -11 -4 -8 -9 -7 -14 2 -6 9
-12 10 -22 2 -23 -19 -77 -21 -81 -4 -3 13 -5 13 -12 -3z"/>
<path d="M7435 2791 c-3 -11 -3 -31 1 -45 6 -25 7 -26 83 -21 88 4 120 13 99
26 -8 6 -9 9 -2 9 7 0 11 11 10 25 -1 24 -4 25 -61 25 -35 0 -67 -5 -74 -12
-11 -10 -14 -10 -18 0 -7 19 -31 14 -38 -7z"/>
<path d="M6948 2694 c-3 -5 -9 -23 -12 -41 -7 -33 10 -56 24 -33 5 9 9 9 14 1
5 -7 46 -11 113 -11 93 0 104 2 93 15 -7 9 -15 13 -18 10 -10 -9 -41 27 -35
41 4 11 -5 14 -36 14 -31 0 -41 -4 -41 -16 0 -15 -2 -15 -25 0 -33 22 -56 21
-49 -1 3 -10 -1 -7 -9 6 -8 13 -17 20 -19 15z"/>
<path d="M6598 2661 c-9 -62 -8 -62 125 -61 67 1 140 4 163 7 38 5 40 7 36 35
-3 20 -12 32 -29 39 -31 12 -63 12 -63 0 0 -5 10 -7 22 -3 14 3 19 2 14 -6 -4
-7 -16 -12 -27 -12 -10 0 -19 -4 -19 -10 0 -5 -5 -10 -11 -10 -8 0 -8 4 1 15
24 29 1 36 -105 34 -103 -3 -103 -3 -107 -28z"/>
</g>
</svg>
